<svg width="169" height="167" viewBox="0 0 169 167" fill="none" xmlns="http://www.w3.org/2000/svg">
    <path
        d="M151.215 88.7188C139.494 81.9447 126.36 79.7273 113.884 81.4817V81.433C107.671 81.433 101.676 80.4339 96.072 78.6064C94.7562 78.1677 93.9033 76.9007 94.0008 75.5117C94.3419 70.4433 95.3653 65.4237 97.0223 60.6233C99.654 52.9964 110.083 52.241 114.055 59.2588C114.128 59.3806 114.201 59.5268 114.274 59.6486C120.147 69.5417 133.013 73.2943 143.271 68.0797C154.651 62.2803 158.72 48.2448 152.409 37.3282C147.365 28.6047 137.301 24.6329 127.993 26.9234C133.549 24.4623 139.348 22.9759 145.172 22.3667C144.831 22.0256 144.465 21.7088 144.124 21.3677C136.522 22.2692 128.992 24.706 121.95 28.7753C110.229 35.5494 101.75 45.808 97.0223 57.4799H96.9736C93.8546 62.8407 90.0046 67.5193 85.6185 71.4668C84.5707 72.3927 83.0599 72.4902 81.8903 71.7104C77.6747 68.8595 73.8491 65.4724 70.5108 61.6467C65.2231 55.5549 69.7797 46.1492 77.8453 46.1979C77.9915 46.1979 78.1621 46.1979 78.3083 46.1979C89.8096 46.0517 99.4834 36.7921 100.093 25.2908C100.775 12.5467 90.6381 1.99568 78.0159 1.99568C67.9522 1.99568 59.4724 8.72105 56.8163 17.9319C57.4743 11.7913 59.1069 5.94318 61.568 0.509277C61.105 0.631114 60.642 0.777317 60.179 0.899154C57.0844 8.0144 55.3787 15.8363 55.3787 24.0724C55.3787 37.6206 60.0084 50.0723 67.7816 60.0141H67.7329C70.8519 65.4237 72.9718 71.1012 74.1902 76.8763C74.4826 78.2409 73.8003 79.6054 72.5332 80.2146C67.9522 82.4564 63.1275 84.0646 58.1322 85.0393C50.2128 86.5745 44.3403 77.9241 48.434 70.9794C48.5071 70.8576 48.5802 70.7114 48.6533 70.5895C54.2822 60.5502 51.09 47.5381 41.4406 41.2757C30.7434 34.3067 16.5373 37.8156 10.2261 48.7321C5.18211 57.4556 6.79035 68.1528 13.4182 75.0731C8.69099 71.6373 4.57293 67.5436 1.16151 62.9382C1.03968 63.4012 0.942196 63.8885 0.844727 64.3515C5.45014 70.3702 11.2739 75.4874 18.048 79.3861C27.2345 84.6982 37.2738 87.208 47.1913 87.208C49.9448 87.208 52.6739 86.9887 55.3787 86.6232V86.6719C62.4208 86.6719 69.1462 87.939 75.3842 90.2783C75.2136 96.1508 74.1415 101.95 72.2408 107.482C69.6092 115.109 59.18 115.864 55.2081 108.846C55.135 108.724 55.0619 108.578 54.9888 108.456C49.1163 98.5632 36.2504 94.8106 25.9918 100.025C14.6122 105.825 10.5429 119.86 16.854 130.777C21.8981 139.5 31.9618 143.472 41.27 141.182C36.2017 143.423 30.9627 144.861 25.675 145.568C26.0161 145.884 26.3329 146.226 26.674 146.518C33.7649 145.47 40.7583 143.131 47.3131 139.354C59.0338 132.58 67.5136 122.321 72.2408 110.649H72.2896C75.4086 105.289 79.2586 100.61 83.6447 96.6625C84.6925 95.7366 86.2033 95.6391 87.3729 96.4188C91.5884 99.2698 95.4141 102.657 98.7281 106.483C104.016 112.574 99.4591 121.98 91.3935 121.931C91.2473 121.931 91.0767 121.931 90.9305 121.931C79.4292 122.078 69.7554 131.337 69.1462 142.838C68.4639 155.583 78.6007 166.134 91.2229 166.134C101.287 166.134 109.766 159.408 112.422 150.197C111.838 155.631 110.497 160.822 108.499 165.695C108.938 165.573 109.401 165.451 109.84 165.305C112.422 158.702 113.86 151.538 113.86 144.032C113.86 130.484 109.23 118.033 101.457 108.091H101.506C97.997 101.975 95.7309 95.4929 94.6343 88.9381C99.8002 86.1358 105.356 84.1621 111.107 83.0656C119.026 81.5304 124.898 90.1808 120.805 97.1255C120.732 97.2473 120.659 97.3935 120.585 97.5154C114.957 107.555 118.149 120.567 127.798 126.829C138.495 133.798 152.702 130.289 159.013 119.373C164.057 110.649 162.448 99.9521 155.821 93.0318C160.402 96.3701 164.422 100.318 167.785 104.777C167.907 104.314 168.004 103.851 168.102 103.388C163.545 97.5397 157.843 92.5444 151.215 88.7188ZM81.0861 91.4967C81.0861 91.4967 81.013 91.4723 80.9887 91.4479C78.357 90.1808 76.6269 87.5979 76.432 84.6738C76.432 84.6251 76.432 84.6007 76.432 84.552C76.2371 81.6523 77.5773 78.85 80.014 77.2174C80.0383 77.2174 80.0627 77.1687 80.0871 77.1687C82.5238 75.5117 85.6185 75.2924 88.2501 76.5839C88.2745 76.5839 88.3232 76.6082 88.3476 76.6326C90.9792 77.8997 92.7093 80.4826 92.9043 83.4067C92.9043 83.4311 92.9043 83.4798 92.9043 83.5042C93.0992 86.4283 91.7346 89.2061 89.3223 90.8387C89.2979 90.8387 89.2735 90.8875 89.2248 90.8875C86.8124 92.5201 83.6935 92.7394 81.0618 91.4479L81.0861 91.4967Z"
        fill="white" />
</svg>