<svg width="397" height="199" viewBox="0 0 397 199" fill="none" xmlns="http://www.w3.org/2000/svg">
<path d="M382.051 83.4037C380.66 83.2049 379.215 83.2778 377.817 83.2778H56.1912C50.8843 83.2778 45.0074 84.0132 40.3961 80.8661C37.7989 79.0905 35.8444 76.7319 34.473 74.0552H345.154C350.017 74.0552 354.105 73.7107 358.213 70.3317C364.036 65.5415 369.277 59.8568 374.584 54.5366C379.911 49.1965 385.529 43.9226 390.426 38.1717C393.427 34.647 395.348 30.4597 395.958 25.855C397.025 17.7984 395.282 8.3903 388.537 3.16282C383.853 -0.461308 378.221 0.207849 372.702 0.207849H214.096C213.261 0.207849 209.2 4.66017 209.286 4.57404C205.516 8.18491 201.805 11.862 198.122 15.559C194.431 19.256 190.741 22.9531 187.137 26.7296C186.481 27.4186 183.393 31.5396 182.771 31.5396H343.391C346.631 31.5396 350.216 31.2017 353.303 32.3148C358.279 34.1103 361.532 38.0127 363.308 42.73H50.5198C49.367 42.73 48.1876 42.6704 47.0348 42.7631C44.4509 42.9619 42.1321 43.9425 40.0252 45.4133C38.561 46.4336 37.2689 47.666 35.9637 48.8785C29.8749 54.5631 23.9916 60.4929 18.1347 66.4227C11.4098 73.2204 2.84974 79.8856 1.08075 89.837C-0.767756 100.226 4.51271 114.205 16.624 114.603C17.6311 114.636 18.6448 114.603 19.6453 114.603H341.656C348.182 114.603 354.251 114.027 359.259 119.446C360.975 121.301 362.287 123.494 363.228 125.879H51.9774C47.6443 125.879 43.8746 125.86 40.0252 128.563C36.4276 131.08 33.3533 134.493 30.2327 137.534C22.7857 144.802 15.332 152.11 8.26264 159.749C4.96316 163.313 2.38584 167.09 1.29264 171.907C-0.608862 180.321 1.60403 190.829 9.07092 195.93C13.6226 199.044 19.2741 198.349 24.5016 198.349H182.777C183.612 198.349 187.673 193.896 187.587 193.983C191.357 190.372 195.067 186.695 198.751 182.998C202.441 179.301 206.132 175.604 209.736 171.827C210.392 171.138 213.48 167.017 214.102 167.017H54.0711C51.2354 167.017 48.0751 167.335 45.2725 166.732C39.7668 165.553 36.1227 161.876 34.0953 157.198H346.353C347.506 157.198 348.685 157.258 349.838 157.165C352.422 156.966 354.741 155.986 356.848 154.515C358.312 153.488 359.604 152.262 360.909 151.05C366.998 145.365 372.881 139.435 378.738 133.505C385.463 126.708 394.023 120.042 395.792 110.098C397.594 99.9739 394.07 85.1131 382.051 83.3971V83.4037Z" fill="white"/>
</svg>
