<svg width="351" height="82" viewBox="0 0 351 82" fill="none" xmlns="http://www.w3.org/2000/svg">
<path d="M175.395 0.579102C97.1272 0.579102 30.3366 45.1956 3.41073 66.0296C1.26641 67.6866 0.0236816 70.172 0.0236816 72.755C0.0236816 77.604 4.23919 81.5272 9.47815 81.5272C37.9635 81.5272 101.854 81.5272 175.395 81.5272C248.935 81.5272 312.851 81.5272 341.312 81.5272C346.526 81.5272 350.766 77.604 350.766 72.755C350.766 70.1477 349.523 67.6866 347.379 66.0296C320.478 45.1956 253.687 0.579102 175.395 0.579102ZM175.395 8.08422C228.077 8.08422 275.496 29.0888 308.27 48.6801C274.716 34.3521 227.565 19.6099 175.395 19.6099C123.225 19.6099 76.0495 34.3521 42.4958 48.6801C75.2698 29.0888 122.688 8.08422 175.395 8.08422ZM175.395 27.1151C228.296 27.1151 275.959 42.6857 308.83 57.1599C275.301 47.6567 227.809 37.7636 175.395 37.7636C122.981 37.7636 75.4891 47.6567 41.9597 57.1599C74.8312 42.6614 122.494 27.0907 175.395 27.0907V27.1151ZM175.395 45.2687C230.148 45.2687 279.346 56.2339 312.461 66.0783C278.98 61.1318 230.148 55.771 175.395 55.771C120.642 55.771 71.834 61.1074 38.329 66.0783C71.4198 56.2583 120.642 45.2687 175.395 45.2687ZM35.7948 74.0464C68.9586 69.0024 118.985 63.2761 175.395 63.2761C231.805 63.2761 281.831 69.0024 314.995 74.0464H175.395H35.7948Z" fill="white"/>
<path d="M19.1764 37.6408C29.7541 37.6408 38.329 29.3495 38.329 19.1217C38.329 8.89383 29.7541 0.602539 19.1764 0.602539C8.59863 0.602539 0.0236816 8.89383 0.0236816 19.1217C0.0236816 29.3495 8.59863 37.6408 19.1764 37.6408Z" fill="white"/>
<path d="M331.613 37.6408C342.191 37.6408 350.766 29.3495 350.766 19.1217C350.766 8.89383 342.191 0.602539 331.613 0.602539C321.036 0.602539 312.461 8.89383 312.461 19.1217C312.461 29.3495 321.036 37.6408 331.613 37.6408Z" fill="white"/>
</svg>
