<svg width="166" height="167" viewBox="0 0 166 167" fill="none" xmlns="http://www.w3.org/2000/svg">
<path d="M165.999 83.3119C165.999 72.5903 152.987 63.6475 135.711 61.6006C146.481 47.955 149.356 32.433 141.778 24.8304C134.2 17.2278 118.678 20.1276 105.008 30.8979C102.961 13.6215 94.0183 0.609375 83.2967 0.609375C72.5751 0.609375 63.6324 13.6215 61.5855 30.8979C47.9398 20.1276 32.4179 17.2522 24.8153 24.8304C17.2371 32.4087 20.1124 47.9306 30.8827 61.6006C13.6064 63.6475 0.594238 72.5903 0.594238 83.3119C0.594238 94.0335 13.6064 102.976 30.8827 105.023C20.1124 118.669 17.2371 134.191 24.8153 141.793C32.3935 149.396 47.9155 146.496 61.5855 135.726C63.6324 153.002 72.5751 166.014 83.2967 166.014C94.0183 166.014 102.961 153.002 105.008 135.726C118.654 146.496 134.176 149.372 141.778 141.793C149.356 134.215 146.481 118.693 135.711 105.023C152.987 102.976 165.999 94.0335 165.999 83.3119ZM137.441 24.8792C144.093 31.5314 138.708 47.76 125.379 61.2351C125.282 61.3326 125.16 61.4544 125.062 61.5519C124.672 61.9418 124.282 62.3317 123.868 62.7215C113.658 72.4441 102.084 77.683 94.2864 76.6596C93.6285 76.5621 92.9949 76.4403 92.3857 76.2697C91.2405 75.9286 90.217 75.4412 89.3398 74.759C98.6237 70.2754 105.447 55.7038 105.447 38.403C105.447 36.4049 105.349 34.4555 105.179 32.5549C117.655 22.3206 131.495 18.9336 137.416 24.8792H137.441ZM90.4363 83.3362C90.4363 85.2125 89.7053 86.9913 88.3651 88.3315C87.0493 89.6717 85.2705 90.4027 83.3698 90.4027C83.3698 90.4027 83.3698 90.4027 83.3455 90.4027C83.3211 90.4027 83.3455 90.4027 83.3211 90.4027C81.4448 90.4027 79.666 89.6717 78.3258 88.3315C76.9856 87.0157 76.2546 85.2369 76.2546 83.3362C76.2546 83.3362 76.2546 83.3362 76.2546 83.3119C76.2546 83.2875 76.2546 83.3119 76.2546 83.2875C76.2546 81.4112 76.9856 79.6324 78.3258 78.2922C79.6416 76.952 81.4205 76.221 83.3211 76.221C83.3211 76.221 83.3211 76.221 83.3455 76.221C83.3698 76.221 83.3455 76.221 83.3698 76.221C85.2461 76.221 87.0249 76.952 88.3651 78.2922C89.7053 79.608 90.4363 81.3869 90.4363 83.2875C90.4363 83.2875 90.4363 83.2875 90.4363 83.3119C90.4363 83.3362 90.4363 83.3119 90.4363 83.3362ZM80.2508 3.72838C89.681 3.72838 97.3079 19.0067 97.4297 37.9644C97.4297 38.1106 97.4297 38.2568 97.4297 38.4274C97.4297 38.9878 97.4297 39.5483 97.4297 40.0843C97.0886 54.1686 92.605 66.0598 86.367 70.8602C85.8309 71.2744 85.2948 71.6156 84.7588 71.908C83.711 72.4684 82.6388 72.8339 81.5423 73.0045C84.9293 63.2576 79.4467 48.1499 67.2387 35.9175C65.8254 34.5042 64.3877 33.1884 62.9013 31.97C64.4852 15.912 71.8685 3.75275 80.2752 3.75275L80.2508 3.72838ZM24.864 29.1922C31.5163 22.5399 47.7449 27.9251 61.22 41.254C61.3175 41.3514 61.4393 41.4733 61.5368 41.5707C61.9266 41.9606 62.3165 42.3505 62.7064 42.7647C72.4289 52.9746 77.6679 64.5491 76.6445 72.3466C76.547 73.0045 76.4252 73.6381 76.2546 74.2472C75.9135 75.3925 75.4261 76.4159 74.7438 77.2932C70.2603 68.0092 55.6886 61.1864 38.3879 61.1864C36.3898 61.1864 34.4404 61.2839 32.5397 61.4544C22.3055 48.9784 18.9184 35.1378 24.864 29.2165V29.1922ZM3.71325 86.3578C3.71325 76.9276 18.9915 69.3007 37.9493 69.1789C38.0955 69.1789 38.2417 69.1789 38.4122 69.1789C38.9727 69.1789 39.5331 69.1789 40.0692 69.1789C54.1535 69.52 66.0447 74.0036 70.8207 80.2416C71.2349 80.7777 71.5761 81.3138 71.8685 81.8498C72.4289 82.8976 72.7944 83.9698 72.965 85.0663C63.2181 81.6793 48.1104 87.1619 35.878 99.3699C34.4647 100.783 33.1489 102.221 31.9305 103.707C15.8725 102.123 3.71325 94.7401 3.71325 86.3334V86.3578ZM29.177 141.745C22.5248 135.092 27.9099 118.864 41.2388 105.389C41.3363 105.291 41.4581 105.169 41.5556 105.072C41.9455 104.682 42.3354 104.292 42.7496 103.902C52.9595 94.1797 64.5339 88.9407 72.3315 89.9641C72.9894 90.0616 73.6229 90.1834 74.2321 90.354C75.3774 90.6952 76.4008 91.1825 77.278 91.8648C67.9941 96.3484 61.1713 110.92 61.1713 128.221C61.1713 130.219 61.2687 132.168 61.4393 134.069C48.9633 144.303 35.1227 147.69 29.2014 141.745H29.177ZM86.3426 162.895C76.9125 162.895 69.2856 147.617 69.1637 128.659C69.1637 128.513 69.1637 128.367 69.1637 128.196C69.1637 127.636 69.1637 127.075 69.1637 126.539C69.5049 112.455 73.9884 100.564 80.2265 95.7635C80.7625 95.3493 81.2986 95.0081 81.8347 94.7157C82.8825 94.1553 83.9547 93.7898 85.0512 93.6192C81.6641 103.366 87.1468 118.474 99.3548 130.706C100.768 132.119 102.206 133.435 103.692 134.654C102.108 150.712 94.725 162.871 86.3183 162.871L86.3426 162.895ZM141.729 137.432C135.077 144.084 118.849 138.699 105.373 125.37C105.276 125.272 105.154 125.15 105.057 125.053C104.667 124.663 104.277 124.273 103.887 123.859C94.1645 113.649 88.9256 102.075 89.949 94.2771C90.0465 93.6192 90.1683 92.9857 90.3389 92.3765C90.68 91.2312 91.1674 90.2078 91.8496 89.3306C96.3332 98.6145 110.905 105.437 128.206 105.437C130.204 105.437 132.153 105.34 134.054 105.169C144.288 117.645 147.675 131.486 141.729 137.407V137.432ZM128.669 97.4449C128.522 97.4449 128.376 97.4449 128.206 97.4449C127.645 97.4449 127.085 97.4449 126.549 97.4449C112.464 97.1037 100.573 92.6202 95.7971 86.3821C95.3829 85.8461 95.0418 85.31 94.7494 84.7739C94.1889 83.7261 93.8234 82.654 93.6528 81.5574C103.4 84.9445 118.507 79.4618 130.74 67.2538C132.153 65.8405 133.469 64.4029 134.687 62.9165C150.745 64.5003 162.905 71.8836 162.905 80.2903C162.905 89.7205 147.626 97.3474 128.669 97.4692V97.4449Z" fill="white"/>
</svg>
