<svg width="167" height="167" viewBox="0 0 167 167" fill="none" xmlns="http://www.w3.org/2000/svg">
<path d="M83.4576 0.609375C37.8665 0.609375 0.755127 37.6963 0.755127 83.3119C0.755127 128.927 37.8421 166.014 83.4576 166.014C129.073 166.014 166.136 128.927 166.136 83.3119C166.136 37.6963 129.049 0.609375 83.4576 0.609375ZM84.5785 2.8999C122.348 3.43598 153.879 30.0938 161.896 65.6212C151.052 43.6176 120.569 27.657 84.5785 27.3159V2.92426V2.8999ZM84.5785 29.5821C124.614 29.9476 157.632 49.9531 163.065 75.8067C153.514 64.3785 122.518 56.1667 84.5785 55.9962V29.5821ZM84.5785 74.2472V58.2623C126.466 58.4573 161.823 69.2032 163.772 82.1666H84.5785V74.2472ZM82.3124 163.699C44.5431 163.163 13.0119 136.506 4.99503 100.978C15.8385 122.982 46.3219 138.942 82.3124 139.283V163.699ZM82.3124 137.017C42.2769 136.652 9.25931 116.646 3.82541 90.7926C13.3774 102.221 44.3725 110.433 82.3124 110.603V137.017ZM82.3124 74.2472V108.337C40.425 108.142 5.06814 97.3961 3.11875 84.4328H45.9077V82.1666H3.11875C5.06814 69.2032 40.425 58.4573 82.3124 58.2623V74.2472ZM82.3124 55.9962C44.3725 56.1667 13.3774 64.3541 3.82541 75.8067C9.25931 49.9531 42.3013 29.9476 82.3124 29.5821V55.9962ZM82.3124 27.3159C46.3463 27.657 15.8385 43.6176 4.99503 65.6212C12.9875 30.1181 44.5431 3.43598 82.3124 2.8999V27.3159ZM84.5785 163.699V139.283C120.545 138.942 151.052 122.982 161.896 100.978C153.903 136.481 122.348 163.163 84.5785 163.699ZM84.5785 137.017V110.603C122.518 110.433 153.514 102.245 163.065 90.7926C157.632 116.646 124.59 136.627 84.5785 137.017ZM84.5785 108.337V84.4328H163.772C161.823 97.3961 126.466 108.142 84.5785 108.337Z" fill="white"/>
<path d="M63.5496 91.6447C68.0575 91.6447 70.5674 88.9399 70.7867 85.2605H65.9863C65.8401 86.6738 65.304 87.9652 63.3547 87.9652C61.4053 87.9652 60.3331 86.2595 60.3331 83.3111C60.3331 80.3627 61.3078 78.6326 63.3547 78.6326C65.4015 78.6326 65.8401 80.0459 65.9863 81.313H70.7867C70.4212 77.6823 67.8139 74.9531 63.2328 74.9531C58.4081 74.9531 55.4353 78.4376 55.4353 83.3111C55.4353 88.1845 58.5543 91.6447 63.5252 91.6447H63.5496Z" fill="white"/>
<path d="M63.3306 97.2011C71.7373 97.2011 77.0006 91.3042 77.0006 83.3361C77.0006 75.368 71.7129 69.4468 63.3306 69.4468C54.9482 69.4468 49.6118 75.3924 49.6118 83.3361C49.6118 91.2798 54.9239 97.2011 63.3306 97.2011ZM63.3306 71.2987C70.5677 71.2987 74.7832 76.5133 74.7832 83.3361C74.7832 90.159 70.592 95.3248 63.3306 95.3248C56.0691 95.3248 51.8536 90.1346 51.8536 83.3361C51.8536 76.5377 56.0448 71.2987 63.3306 71.2987Z" fill="white"/>
</svg>
