<svg width="169" height="170" viewBox="0 0 169 170" fill="none" xmlns="http://www.w3.org/2000/svg">
<path d="M81.8551 159.274V128.328H52.054C58.8037 145.921 69.574 157.812 81.8551 159.274Z" fill="white"/>
<path d="M44.6218 85.222C44.6218 99.087 46.6687 112.05 50.2263 123.162H81.855V47.2578H50.2263C46.6687 58.3693 44.6218 71.3571 44.6218 85.1977V85.222Z" fill="white"/>
<path d="M116.651 29.69C118.771 33.54 120.648 37.7068 122.256 42.1416H144.796C135 28.4716 120.696 18.2373 104.053 13.6807C108.708 17.6282 112.972 23.0133 116.651 29.7143V29.69Z" fill="white"/>
<path d="M52.054 42.1413H81.8551V11.1948C69.574 12.6569 58.8037 24.5481 52.054 42.1413Z" fill="white"/>
<path d="M52.2245 140.779C50.1046 136.929 48.2283 132.762 46.62 128.328H24.0803C33.876 141.998 48.1796 152.232 64.8224 156.789C60.1682 152.841 55.904 147.456 52.2245 140.755V140.779Z" fill="white"/>
<path d="M52.2245 29.6899C55.9283 22.9889 60.1926 17.6037 64.8224 13.6562C48.1796 18.2129 33.876 28.4472 24.0803 42.1172H46.62C48.2283 37.6824 50.1046 33.5156 52.2245 29.6655V29.6899Z" fill="white"/>
<path d="M39.4802 85.223C39.4802 71.7479 41.3565 58.7846 44.8897 47.2832H20.693C14.0651 58.3947 10.2151 71.3824 10.2151 85.223C10.2151 99.0636 14.0408 112.051 20.693 123.163H44.8897C41.3565 111.661 39.4802 98.6981 39.4802 85.223Z" fill="white"/>
<path d="M148.183 47.2832H123.986C127.52 58.7846 129.396 71.7479 129.396 85.223C129.396 98.6981 127.52 111.661 123.986 123.163H148.183C154.811 112.051 158.661 99.0636 158.661 85.223C158.661 71.3824 154.835 58.3947 148.183 47.2832Z" fill="white"/>
<path d="M116.651 140.78C112.948 147.481 108.683 152.866 104.053 156.814C120.696 152.257 135 142.023 144.796 128.353H122.256C120.648 132.788 118.771 136.955 116.651 140.805V140.78Z" fill="white"/>
<path d="M84.4379 0.887695C37.872 0.887695 0.102783 38.657 0.102783 85.2228C0.102783 131.789 37.872 169.558 84.4379 169.558C131.004 169.558 168.773 131.789 168.773 85.2228C168.773 38.657 131.004 0.887695 84.4379 0.887695ZM84.4379 164.587C40.6743 164.587 5.07371 128.986 5.07371 85.2228C5.07371 41.4592 40.6743 5.85864 84.4379 5.85864C128.201 5.85864 163.802 41.4592 163.802 85.2228C163.802 128.986 128.201 164.587 84.4379 164.587Z" fill="white"/>
<path d="M87.0208 128.328V159.274C99.3019 157.812 110.072 145.921 116.822 128.328H87.0208Z" fill="white"/>
<path d="M124.23 85.223C124.23 71.358 122.183 58.3947 118.625 47.2832H86.9963V123.187H118.625C122.183 112.076 124.23 99.088 124.23 85.2474V85.223Z" fill="white"/>
<path d="M87.0208 11.1948V42.1413H116.822C110.072 24.5481 99.3019 12.6569 87.0208 11.1948Z" fill="white"/>
</svg>
