<svg width="161" height="168" viewBox="0 0 161 168" fill="none" xmlns="http://www.w3.org/2000/svg">
<path d="M94.9003 146.398L67.5602 99.1504H54.6943L82.4242 147.105H94.4861L86.3717 161.092L56.9848 110.311H44.1189L77.3071 167.622H82.5948H90.173H95.4607L116.758 130.852H103.892L94.9003 146.398Z" fill="white"/>
<path d="M33.4704 127.611L60.713 80.3146L54.2801 69.1787L26.6232 117.182L32.6663 127.611L16.4864 127.587L45.7515 76.757L39.3186 65.6211L6.3009 123.006L12.7339 134.142L15.3655 138.723L57.862 138.772L51.4291 127.636L33.4704 127.611Z" fill="white"/>
<path d="M27.988 80.6068L19.0208 65.0361L73.6035 64.9874L80.0121 53.8516L24.6253 53.9003L18.6066 64.3294L10.541 50.3183L69.2173 50.2208L75.6503 39.085L9.42009 39.1825L6.78842 43.7635L0.355469 54.8993L21.555 91.7426L27.988 80.6068Z" fill="white"/>
<path d="M66.0007 21.2239L93.3164 68.472H106.182L78.4524 20.5172H66.3905L74.5049 6.53041L103.892 57.2874H116.758L83.5695 0H78.2818H70.7036H65.4159L44.1189 36.7702H56.9848L66.0007 21.2239Z" fill="white"/>
<path d="M127.406 39.9869L100.164 87.2837L106.596 98.4196L134.253 50.4404L128.235 39.9869L144.39 40.0112L115.125 90.8657L121.558 102.002L154.576 44.6166L148.167 33.4808L145.511 28.8998L103.015 28.8267L109.447 39.9625L127.406 39.9869Z" fill="white"/>
<path d="M160.521 112.699L139.322 75.8799L132.913 87.0157L141.881 102.586L87.2979 102.635L80.8649 113.771L136.252 113.722L142.27 103.293L150.336 117.304L91.6596 117.377L85.251 128.513L151.457 128.416L154.113 123.835L160.521 112.699Z" fill="white"/>
</svg>
