<svg width="142" height="115" viewBox="0 0 142 115" fill="none" xmlns="http://www.w3.org/2000/svg">
<path d="M31.2632 66.0324C29.9961 61.8656 16.9352 58.4299 0 54.385L0.779752 49.9257C11.6719 51.0953 18.1536 51.6071 22.491 51.6071C26.2679 51.6071 27.6812 51.1928 28.1686 50.9735C27.4375 48.7561 20.371 42.5425 17.983 40.4226L20.7365 36.8405C25.3907 39.9352 34.4797 45.9783 38.1104 47.3672C37.8667 46.4169 37.3306 44.7842 36.1854 41.982L40.0841 39.7402C40.1816 39.8864 40.3035 40.0082 40.4009 40.1544C41.205 41.1778 42.8133 40.8367 43.1301 39.5696C47.8573 19.6616 59.3099 5.62605 72.6875 5.62605C88.7699 5.62605 102.05 25.9241 104.243 52.3138C111.48 47.6597 117.207 40.8612 120.496 32.7956C113.235 30.7975 107.947 23.999 108.337 16.0065C108.751 7.59982 115.671 0.679487 124.078 0.289611C133.581 -0.149 141.452 7.42917 141.452 16.8349C141.452 26.2407 134.044 33.4048 124.882 33.4048C124.224 33.4048 123.591 33.3559 122.982 33.2828C119.351 42.4206 112.772 50.0963 104.438 55.116C104.511 56.7242 104.584 58.3568 104.584 59.9894C104.584 90.0342 90.3051 114.377 72.6875 114.377C59.0662 114.377 47.4431 99.7811 42.862 79.2882C42.4478 77.412 40.474 76.3156 38.6465 76.9735C34.8452 78.3624 30.3372 80.8234 24.7328 84.1861L21.9062 80.7016C28.1686 73.9031 32.1404 68.8103 31.2876 66.0324H31.2632ZM77.0249 109.918C90.695 109.918 102.513 87.5732 102.513 59.9894C102.513 58.7223 102.489 57.4796 102.44 56.2369C96.1776 59.5752 89.038 61.5002 81.4598 61.5002V59.0148C93.7896 59.0879 102.586 47.0504 99.1017 35.281C94.6181 20.222 86.2601 10.0853 77.0493 10.0853C65.6698 10.0853 56.0934 25.5828 53.1937 46.6848C52.9501 48.5367 54.9482 49.877 56.5564 48.9023C57.1412 48.5368 57.7748 48.1469 58.4571 47.6596L61.9172 50.1937C61.04 53.0691 60.9425 54.7261 61.5761 55.9201C63.2331 58.9173 70.8113 61.4271 84.2133 65.0091L83.4579 69.4683C79.8028 69.1759 77.293 69.0541 75.3679 69.0541C73.6135 69.0541 72.5657 69.1759 71.9809 69.2977C74.4176 72.7822 87.844 82.4073 93.8383 86.696L91.3772 90.4973C80.6313 84.2105 69.8609 78.0943 66.5226 78.1674C66.0353 80.9453 72.0053 93.3483 74.2958 98.1242L70.397 100.415C65.0362 92.7391 60.8938 87.1589 57.3849 83.2601C56.5808 82.3829 55.1431 83.187 55.4599 84.3323C59.6754 99.6349 67.7897 109.991 77.098 109.991L77.0249 109.918ZM28.997 75.9743C27.5106 77.8506 25.6831 79.8975 23.5388 82.2367C24.416 81.7007 25.2689 81.2133 26.0973 80.726C26.3166 80.6041 26.5359 80.458 26.7796 80.3362C27.4132 79.9707 28.0224 79.6294 28.6072 79.2882C28.8265 79.1664 29.0458 79.0447 29.2407 78.9228C29.9474 78.533 30.654 78.143 31.3363 77.7775C31.385 77.7531 31.4338 77.7288 31.5069 77.7045C32.2623 77.3146 33.0176 76.9247 33.7243 76.5835C33.7974 76.5591 33.8705 76.5105 33.9436 76.4861C34.5771 76.1937 35.1863 75.9012 35.7711 75.6575C35.893 75.6088 36.0148 75.5601 36.1367 75.487C36.7215 75.2433 37.3063 74.9997 37.8667 74.8047C37.9155 74.8047 37.9886 74.7559 38.0373 74.7316C39.3044 74.2686 40.5228 73.9519 41.668 73.7082C46.1029 72.8553 49.8311 73.7569 53.8029 76.7297C53.9979 76.8759 54.2172 77.0465 54.4365 77.2171C54.607 77.3389 54.7532 77.4851 54.9238 77.6069C55.1431 77.7775 55.3381 77.9481 55.5574 78.1431C55.7279 78.2893 55.8985 78.4598 56.0691 78.606C56.4346 78.9228 56.7757 79.2883 57.1412 79.6294C57.3362 79.8244 57.5067 79.9949 57.7017 80.1898C57.921 80.4091 58.1159 80.6285 58.3352 80.8722C58.5302 81.0671 58.7007 81.2621 58.8957 81.4814C59.115 81.725 59.3343 81.9443 59.5536 82.188C59.7485 82.4073 59.9678 82.651 60.1628 82.8947C60.3577 83.1384 60.577 83.3576 60.772 83.6013C61.1618 84.0643 61.5517 84.5273 61.9416 85.0146C62.1365 85.2583 62.3558 85.5264 62.5508 85.7944C62.7944 86.0868 63.0381 86.4036 63.2818 86.7204C63.5011 86.9884 63.7204 87.2807 63.9397 87.5488C64.2077 87.8899 64.4758 88.2554 64.7438 88.5966C64.9388 88.8646 65.1337 89.1083 65.3286 89.3763C65.7916 89.9855 66.2302 90.5947 66.7176 91.2283C66.8638 91.4476 67.0343 91.6669 67.2049 91.8862C67.5704 92.3736 67.9359 92.8853 68.3014 93.397C68.4964 93.665 68.6913 93.933 68.8863 94.2254C69.2518 94.7371 69.6173 95.2488 70.0071 95.7849C70.1777 96.0286 70.3483 96.2723 70.5432 96.5403C71.1037 97.3201 71.6641 98.1242 72.2246 98.9526C71.7616 98.0023 71.323 97.1007 70.9087 96.1991C70.7869 95.9311 70.6651 95.6632 70.5189 95.3951C70.2265 94.7859 69.9584 94.201 69.6904 93.6406C69.5442 93.3238 69.398 93.0314 69.2761 92.7146C69.0568 92.2029 68.8131 91.7156 68.5938 91.2283C68.4476 90.9115 68.3258 90.6191 68.204 90.3267C68.009 89.8637 67.8141 89.4251 67.6192 89.0109C67.4973 88.7185 67.3755 88.4504 67.2536 88.158C67.0831 87.7437 66.9125 87.3539 66.7419 86.964C66.6445 86.696 66.5226 86.4279 66.4252 86.1842C66.279 85.7943 66.1328 85.4288 65.9865 85.0633C65.8891 84.844 65.816 84.6004 65.7185 84.3811C65.5723 84.0156 65.4505 83.65 65.353 83.3089C65.2799 83.1383 65.2312 82.9434 65.1581 82.7485C65.0119 82.3343 64.9144 81.9443 64.7926 81.5788C64.7682 81.4813 64.7438 81.3839 64.7195 81.3108C64.5976 80.8478 64.5001 80.4335 64.427 80.0436C64.427 79.9462 64.427 79.8731 64.3783 79.8C64.3296 79.5076 64.2808 79.2153 64.2565 78.9472C64.2565 78.8254 64.2565 78.7279 64.2565 78.606C64.2565 78.3867 64.2565 78.1918 64.2565 78.0212C64.2565 77.8994 64.2565 77.8019 64.2808 77.7045C64.2808 77.5339 64.3296 77.3877 64.3539 77.2415C64.3783 77.144 64.4027 77.0709 64.4514 76.9735C64.5001 76.8516 64.5489 76.7298 64.622 76.6323C64.6707 76.5592 64.7195 76.4861 64.7682 76.4373C64.8413 76.3398 64.9388 76.2668 65.0362 76.1937C65.1093 76.145 65.1581 76.0962 65.2312 76.0475C65.353 75.9744 65.4748 75.95 65.5967 75.9013C65.6698 75.8769 65.7429 75.8525 65.8403 75.8281C66.0109 75.8038 66.1815 75.7794 66.3521 75.7794C66.4252 75.7794 66.4983 75.7794 66.5957 75.7794C66.6688 75.7794 66.7663 75.7794 66.8394 75.7794C67.01 75.7794 67.2049 75.7794 67.3998 75.8281C67.5217 75.8281 67.6192 75.8769 67.741 75.9013C67.9359 75.9257 68.1309 75.9744 68.3502 76.0231C68.472 76.0475 68.6182 76.0962 68.7644 76.1449C68.9837 76.1937 69.203 76.2668 69.4223 76.3399C69.5685 76.3886 69.7391 76.4374 69.8853 76.4861C70.129 76.5592 70.3727 76.6566 70.6407 76.7541C70.8113 76.8272 70.9575 76.876 71.128 76.9491C71.4204 77.0709 71.7129 77.1927 72.0296 77.3145C72.2002 77.3876 72.3464 77.4608 72.517 77.5339C72.8825 77.7044 73.2967 77.8749 73.6866 78.0699C73.8084 78.1186 73.9059 78.1673 74.0277 78.2161C74.5638 78.4598 75.1243 78.7522 75.6847 79.0202C75.8066 79.069 75.9284 79.1421 76.0259 79.1908C76.4888 79.4345 76.9762 79.6782 77.4879 79.9462C77.7072 80.068 77.9265 80.1899 78.1458 80.2874C78.5601 80.5067 78.9987 80.7259 79.4373 80.9696C79.7053 81.1158 79.949 81.2621 80.217 81.3839C80.6556 81.6276 81.0699 81.8469 81.5329 82.0905C81.8253 82.2611 82.1177 82.4073 82.4101 82.5779C82.8487 82.8216 83.3117 83.0896 83.7747 83.3577C84.0914 83.5283 84.3838 83.6988 84.7006 83.8937C85.188 84.1617 85.6753 84.4542 86.187 84.7466C86.5038 84.9172 86.8206 85.1121 87.1373 85.307C87.7221 85.6482 88.307 85.9893 88.8918 86.3304C89.1598 86.4766 89.4279 86.6228 89.6959 86.7934C90.5731 87.3051 91.4747 87.8413 92.425 88.3773C91.5722 87.7682 90.7681 87.1833 89.9639 86.6228C89.7203 86.4522 89.4766 86.2818 89.2329 86.1112C88.6968 85.7213 88.1608 85.3314 87.649 84.9659C87.3566 84.7709 87.0886 84.5516 86.8206 84.3567C86.3576 84.0155 85.919 83.6988 85.456 83.3577C85.188 83.1628 84.9199 82.9678 84.6519 82.7729C84.2133 82.4561 83.7747 82.1393 83.3604 81.8225C83.1167 81.652 82.8974 81.4813 82.6538 81.3108C82.142 80.9209 81.6303 80.5555 81.143 80.1656C81.0455 80.0925 80.9237 79.9949 80.8018 79.9218C80.217 79.4832 79.6809 79.0691 79.1449 78.6548C78.9743 78.5086 78.8037 78.3867 78.6332 78.2405C78.292 77.9724 77.9265 77.7045 77.6097 77.4365C77.4148 77.2903 77.2199 77.1197 77.0249 76.9735C76.7325 76.7542 76.4645 76.5104 76.1721 76.2911C75.9771 76.1449 75.8066 75.9987 75.636 75.8525C75.368 75.6332 75.1243 75.4139 74.8806 75.219C74.7344 75.0971 74.5638 74.951 74.4176 74.8291C74.1252 74.5855 73.8815 74.3661 73.6135 74.1224C73.516 74.0493 73.4186 73.9519 73.3211 73.8788C72.98 73.5864 72.6875 73.294 72.3951 73.026C72.2977 72.9285 72.2002 72.8309 72.1027 72.7334C71.9078 72.5629 71.7372 72.368 71.5667 72.1974C71.4692 72.1 71.3717 71.9781 71.2742 71.8806C71.128 71.7344 71.0062 71.5883 70.86 71.4421C70.7625 71.3446 70.6894 71.2471 70.6163 71.1497C70.4945 71.0035 70.397 70.8817 70.2996 70.7355C70.2265 70.638 70.1534 70.5648 70.1046 70.4673C70.0071 70.3211 69.9097 70.1749 69.8366 70.0531C69.7878 70.0044 69.7635 69.9313 69.7147 69.8825C69.6173 69.6876 69.5198 69.5171 69.4467 69.3465C69.4467 69.2978 69.4223 69.249 69.398 69.2003C69.3736 69.0785 69.3249 68.981 69.3005 68.8835C69.3005 68.8348 69.3005 68.7617 69.3005 68.7129C69.3005 68.6155 69.3005 68.5423 69.3005 68.4692C69.3005 68.4204 69.3005 68.3718 69.3249 68.2987C69.3249 68.2256 69.3736 68.1525 69.398 68.0794C69.398 68.0306 69.4467 67.9819 69.4711 67.9332C69.5198 67.8601 69.5929 67.7869 69.6416 67.7138C69.666 67.6894 69.6904 67.6407 69.7391 67.6164C69.8609 67.5189 69.9828 67.4459 70.129 67.3728C70.1777 67.3728 70.2265 67.324 70.2752 67.324C70.397 67.2752 70.5189 67.2265 70.6651 67.1778C70.7382 67.1534 70.8113 67.129 70.8844 67.1046C71.0062 67.0559 71.1524 67.0316 71.2986 67.0072C71.3961 67.0072 71.4935 66.9584 71.591 66.9584C71.7372 66.934 71.9078 66.9098 72.0784 66.8854C72.1758 66.8854 72.2733 66.861 72.3951 66.8366C72.5901 66.8366 72.8094 66.7878 73.0287 66.7878C73.1262 66.7878 73.1993 66.7878 73.2967 66.7878C73.6135 66.7878 73.9546 66.7636 74.2958 66.7392C74.3445 66.7392 74.4176 66.7392 74.4907 66.7392C74.7831 66.7392 75.0999 66.7392 75.4167 66.7392C75.904 66.7392 76.4401 66.7392 77.0005 66.7636C77.098 66.7636 77.2199 66.7636 77.3417 66.7636C77.8047 66.7636 78.292 66.7879 78.8037 66.8366C78.9987 66.8366 79.218 66.8366 79.4373 66.861C79.9003 66.8854 80.3632 66.9097 80.8506 66.9584C81.0455 66.9584 81.2404 66.9828 81.4354 67.0072C82.1177 67.0559 82.8243 67.1047 83.5797 67.1534C59.8704 60.8179 56.9219 58.4786 59.6998 49.4871C59.383 49.7064 59.0662 49.9258 58.7495 50.1207C58.6764 50.1694 58.6033 50.2182 58.5302 50.2669C58.2621 50.4375 57.9941 50.6081 57.7504 50.7787C57.7017 50.803 57.6773 50.8273 57.6286 50.8517C55.7036 52.0213 54.071 52.728 52.5358 52.8742C49.2462 53.2154 46.3709 51.071 41.8873 45.6858C40.7908 44.37 39.6212 42.8835 38.3297 41.2022C38.3297 41.1778 38.281 41.1535 38.281 41.1292C38.281 41.1292 38.281 41.1779 38.3053 41.2266C38.4515 41.5677 38.5734 41.909 38.7196 42.2257C38.7683 42.3232 38.7927 42.445 38.8414 42.5425C38.9389 42.7862 39.0364 43.0054 39.1095 43.2247C39.1582 43.3466 39.2069 43.4685 39.2557 43.5903C39.3288 43.7852 39.4019 43.9801 39.475 44.1507C39.5237 44.2725 39.5724 44.3944 39.6212 44.5406C39.6699 44.7112 39.743 44.8817 39.7917 45.0279C39.8405 45.1497 39.8648 45.2716 39.9136 45.3934C39.9623 45.5396 40.011 45.6858 40.0598 45.832C40.0841 45.9539 40.1329 46.0514 40.1572 46.1732C40.206 46.295 40.2304 46.4412 40.2547 46.563C40.2791 46.6605 40.3035 46.7823 40.3278 46.8798C40.3522 47.0016 40.3766 47.1235 40.4009 47.221C40.4009 47.3185 40.4253 47.4159 40.4497 47.5134C40.4497 47.6109 40.474 47.7327 40.4984 47.8302C40.4984 47.9276 40.4984 48.0007 40.5228 48.0738C40.5228 48.1713 40.5228 48.2445 40.5228 48.3419C40.5228 48.415 40.5228 48.4881 40.5228 48.5612C40.5228 48.6343 40.5228 48.7074 40.5228 48.7805C40.5228 48.8536 40.5228 48.9023 40.4984 48.9754C40.4984 49.0485 40.474 49.0972 40.4497 49.1703C40.4497 49.2191 40.4253 49.2678 40.4009 49.3165C40.4009 49.3653 40.3522 49.414 40.3278 49.4627C40.3035 49.5115 40.2791 49.5358 40.2304 49.5845C40.206 49.6333 40.1572 49.6578 40.1085 49.7065C40.0598 49.7309 40.0354 49.7552 39.9867 49.7795C39.9379 49.8039 39.8892 49.8283 39.8405 49.8527C39.7917 49.8527 39.743 49.9013 39.6943 49.9013C39.6212 49.9013 39.5724 49.9014 39.4993 49.9257C39.4506 49.9257 39.3775 49.9257 39.3288 49.9257C39.2557 49.9257 39.1826 49.9257 39.1095 49.9257C39.0364 49.9257 38.9389 49.9257 38.8414 49.9257C38.7683 49.9257 38.6708 49.9015 38.5977 49.8771C38.5003 49.8771 38.4028 49.8283 38.281 49.8039C38.1835 49.8039 38.086 49.7551 37.9886 49.7307C37.8667 49.7064 37.7693 49.6577 37.6474 49.6089C37.55 49.5602 37.4281 49.5359 37.3063 49.4871C37.1844 49.4384 37.0382 49.3897 36.9164 49.3409C36.7946 49.2922 36.6727 49.2434 36.5509 49.1703C36.4047 49.0972 36.2585 49.0485 36.1123 48.9754C35.9661 48.9023 35.8442 48.8536 35.698 48.7805C35.5275 48.7074 35.3813 48.6099 35.1863 48.5368C35.0401 48.4637 34.8939 48.3906 34.7234 48.2932C34.5528 48.1957 34.3578 48.0982 34.1629 48.0008C33.9923 47.9033 33.8461 47.8302 33.6756 47.7328C33.4806 47.6109 33.2613 47.5134 33.0664 47.3916C32.8958 47.2941 32.7009 47.1966 32.5303 47.0748C32.311 46.953 32.0917 46.8067 31.8724 46.6848C31.6774 46.563 31.4825 46.4656 31.2876 46.3438C31.0439 46.1976 30.8002 46.0514 30.5565 45.9052C30.3372 45.7834 30.1423 45.6615 29.923 45.5153C29.655 45.3447 29.3869 45.1984 29.1189 45.0279C28.8996 44.8817 28.6803 44.7599 28.461 44.6137C28.1686 44.4431 27.8761 44.2482 27.5837 44.0533C27.3401 43.9071 27.1208 43.7609 26.8771 43.6147C26.5603 43.4197 26.2192 43.2004 25.9024 42.9811C25.6831 42.8349 25.4394 42.6887 25.2201 42.5425C24.8546 42.2988 24.4891 42.055 24.0992 41.8114C23.8799 41.6652 23.6606 41.519 23.4169 41.3728C23.0514 41.1291 22.6372 40.8611 22.2473 40.6174C22.0036 40.4468 21.76 40.3007 21.4919 40.1058C20.834 39.6672 20.1761 39.2284 19.4938 38.7655C19.9812 39.2041 20.4441 39.594 20.9071 40.0082C21.0289 40.1301 21.1752 40.2519 21.297 40.3494C21.6381 40.6662 21.9793 40.983 22.3204 41.2754C22.4179 41.3728 22.5397 41.4703 22.6372 41.5678C23.0514 41.9333 23.4413 42.3232 23.8312 42.6643C23.9287 42.7374 24.0018 42.8348 24.0992 42.9079C24.3916 43.2003 24.684 43.4684 24.9764 43.7365C25.0739 43.834 25.1958 43.9558 25.2932 44.0533C25.5856 44.3457 25.878 44.638 26.1704 44.9061C26.2192 44.9548 26.2679 45.0035 26.3166 45.0523C26.6091 45.369 26.9015 45.6614 27.1695 45.9538C27.267 46.0513 27.3401 46.1489 27.4375 46.222C27.6325 46.4413 27.8274 46.6362 27.998 46.8312C28.0711 46.9043 28.1442 47.0017 28.2173 47.0748C28.4366 47.3428 28.6559 47.5865 28.8508 47.8302C28.8996 47.9033 28.9483 47.952 28.997 48.0252C29.1432 48.2201 29.2894 48.3906 29.4113 48.5855C29.46 48.6586 29.5331 48.7561 29.5819 48.8292C29.7037 48.9997 29.8012 49.1947 29.8986 49.3653C29.923 49.4141 29.9717 49.4628 29.9961 49.5115C30.1179 49.7065 30.191 49.9014 30.2885 50.0963C30.3129 50.1694 30.3372 50.2182 30.3616 50.2913C30.4103 50.4375 30.4591 50.5593 30.4834 50.6811C30.4834 50.7298 30.5078 50.803 30.5322 50.8517C30.5565 51.0223 30.5809 51.1929 30.5809 51.3391C30.5809 51.3634 30.5809 51.4121 30.5809 51.4365C30.5809 51.5583 30.5565 51.6802 30.5078 51.802C30.5078 51.8508 30.4834 51.8995 30.4591 51.9482C30.4103 52.0457 30.3616 52.1432 30.2885 52.2406C30.2885 52.265 30.2398 52.3137 30.2398 52.3381C30.1423 52.4599 30.0205 52.5574 29.8986 52.6792C29.8499 52.7036 29.8012 52.7279 29.7768 52.7766C29.655 52.8498 29.5575 52.9229 29.4113 52.996C29.3626 53.0204 29.3138 53.0448 29.2407 53.0692C29.0458 53.1667 28.8508 53.2397 28.6315 53.3128C28.6072 53.3128 28.5584 53.3128 28.5341 53.3372C28.3148 53.4103 28.0955 53.459 27.8518 53.5078C27.7787 53.5078 27.6812 53.5321 27.5837 53.5564C27.3644 53.6052 27.1208 53.6296 26.8527 53.6784C26.7796 53.6784 26.7065 53.6782 26.6334 53.7026C26.2923 53.7514 25.9511 53.7758 25.5856 53.8002C25.4882 53.8002 25.3907 53.8002 25.3176 53.8002C25.0008 53.8002 24.684 53.8488 24.3429 53.8488C24.2211 53.8488 24.0992 53.8488 23.9774 53.8488C23.5388 53.8488 23.1002 53.8488 22.6128 53.8488C22.0524 53.8488 21.4432 53.8489 20.8096 53.8246C20.5903 53.8246 20.371 53.8246 20.1517 53.8246C19.7131 53.8246 19.2501 53.8002 18.7872 53.7758C18.4948 53.7758 18.2023 53.7514 17.9099 53.727C17.4713 53.727 17.0084 53.6783 16.5454 53.654C16.2286 53.654 15.8875 53.6052 15.5463 53.5808C15.059 53.5564 14.5716 53.5078 14.0843 53.4834C13.7188 53.459 13.3776 53.4346 13.0121 53.3858C12.476 53.3371 11.94 53.2884 11.3795 53.2396C11.014 53.2153 10.6241 53.1666 10.2343 53.1422C9.64944 53.0935 9.04025 53.0204 8.40671 52.9716C8.0412 52.9473 7.65132 52.8986 7.28581 52.8742C6.57916 52.8011 5.84814 52.7279 5.11713 52.6548C4.77598 52.6305 4.43484 52.5818 4.0937 52.5574C2.99717 52.4356 1.87628 52.3137 0.706651 52.1919C10.0637 54.4336 17.252 56.2613 22.5154 58.0644C23.8312 58.5031 25.0252 58.966 26.0973 59.4046C26.6334 59.6239 27.1451 59.8432 27.6081 60.0868C29.5331 60.9884 30.9708 61.9144 31.9942 62.8891C32.2379 63.1328 32.4816 63.3765 32.6765 63.6445C35.0889 66.7148 33.6512 70.443 29.192 76.0231L28.997 75.9743Z" fill="white"/>
</svg>
