<svg width="281" height="124" viewBox="0 0 281 124" fill="none" xmlns="http://www.w3.org/2000/svg">
<path d="M12.6222 96.7475C3.58195 93.7259 0.0486995 91.0455 0.414208 87.4879C0.779717 83.9059 4.77595 82.0053 14.2304 80.8844C17.057 80.5432 20.371 80.2752 24.1236 80.1046C4.11803 67.921 0.755351 57.9548 1.97371 51.3269C3.43575 43.3832 12.7197 33.2464 48.7101 30.1761C63.2086 28.9334 79.9977 29.0796 98.0538 30.4929C112.772 7.31959 148.835 -5.08333 187.53 2.00754C209.997 6.12561 230.027 16.0918 243.941 30.0786C258.147 44.3578 264.336 61.1469 261.388 77.3267C261.388 77.4242 261.339 77.4973 261.339 77.5948C274.911 87.5854 277.275 95.7971 276.227 101.523C275.789 103.936 274.619 106.543 272.207 109.102C276.373 111.149 278.055 113.244 277.787 115.754C277.714 116.363 277.543 116.924 277.251 117.46C277.421 117.46 277.519 117.46 277.519 117.46C279.2 117.46 280.54 118.824 280.54 120.481C280.54 122.138 279.176 123.503 277.519 123.503H191.039C189.797 123.551 188.554 123.576 187.311 123.576C186.068 123.576 184.899 123.551 183.68 123.503H4.80032C3.11897 123.503 1.77878 122.138 1.77878 120.481C1.77878 118.824 3.14334 117.46 4.80032 117.46C4.80032 117.46 63.7204 117.46 137.163 117.46C100.954 113.756 67.0343 108.955 41.6436 103.911C29.1919 101.426 19.4207 99.038 12.6222 96.7718V96.7475ZM70.1046 35.3663C62.7457 35.3663 55.7523 35.6344 49.2462 36.1948C24.8546 38.266 9.4301 44.3335 7.94369 52.3747C6.65223 59.4655 15.9849 68.92 33.2613 78.3014C34.967 79.2274 36.892 79.7147 38.8414 79.7147C40.5471 79.7147 42.3015 79.7147 44.1047 79.7147C57.7747 79.8122 73.7597 80.4458 91.1092 81.591C94.7643 81.8347 97.3472 78.0578 95.812 74.7438C91.4747 65.4599 90.0614 55.7617 91.7914 46.2585C92.0595 44.8452 92.3763 43.4563 92.7661 42.0917C93.6434 39.0945 91.5234 36.073 88.4044 35.9024C82.0933 35.5613 75.9527 35.3663 70.0802 35.3663H70.1046ZM266.748 113.366C264.823 114.536 262.533 115.632 259.804 116.68C265.603 116.168 268.746 115.51 270.379 114.999C269.599 114.56 268.454 114.024 266.748 113.366ZM252.494 85.3923C253.809 82.517 252.835 79.1299 250.13 77.4973C246.353 75.2312 242.089 72.9407 237.361 70.6745C213.53 59.2462 180.805 49.3531 145.253 42.8471C133.386 40.6784 121.714 38.9727 110.408 37.7299C104.487 37.0964 99.0042 41.0683 97.8589 46.9164C97.8345 47.0626 97.8102 47.2088 97.7614 47.355C95.9095 57.4918 98.2488 67.9697 104.414 77.8141C106.339 80.9087 109.628 82.9312 113.283 83.2236C122.226 83.9546 131.413 84.8075 140.721 85.7578C177.052 89.4616 211.094 94.2864 236.557 99.3304C236.557 99.3304 236.582 99.3304 236.606 99.3304C239.53 99.9152 242.576 98.9892 244.647 96.8206C247.937 93.3604 250.593 89.5104 252.518 85.3436L252.494 85.3923ZM158.948 113.415C173.202 114.657 186.97 115.632 199.763 116.314C201.761 116.412 203.759 116.314 205.757 115.949C216.674 113.999 226.494 110.271 234.486 105.13C233.487 104.935 232.464 104.74 231.391 104.521C206.586 99.7934 174.177 95.2611 140.087 91.8009C131.145 90.8993 122.299 90.0708 113.649 89.3642C123.786 99.501 137.383 107.372 152.88 112.221C154.854 112.83 156.901 113.244 158.948 113.439V113.415ZM245.451 107.42C243.624 107.006 241.723 107.42 240.188 108.468C235.436 111.806 230.076 114.682 224.203 116.972C225.811 116.875 227.395 116.753 228.93 116.631C241.285 115.583 251.324 113.512 258.439 110.661C255.028 109.686 250.763 108.614 245.451 107.42ZM109.238 93.5066C108.556 92.8243 107.898 92.1177 107.265 91.4354C105.632 89.6566 103.39 88.5357 100.978 88.3651C81.874 86.9762 64.1346 86.099 48.9782 85.8553C71.4448 95.5291 100.198 103.887 131.193 109.662C122.884 105.179 115.452 99.7446 109.238 93.5066ZM239.652 34.3429C226.591 21.2089 207.707 11.8519 186.458 7.95314C179.392 6.66168 172.447 6.0525 165.722 6.0525C142.207 6.0525 121.471 13.6064 109.117 26.1799C107.216 28.1292 108.386 31.3944 111.09 31.7112C122.519 32.954 134.337 34.684 146.325 36.8771C182.413 43.4806 215.675 53.5443 239.969 65.2162C244.111 67.2143 247.815 69.1393 251.105 71.04C253.322 72.3071 256.076 70.6257 255.978 68.0672C255.564 56.4684 249.935 44.7477 239.628 34.3673L239.652 34.3429ZM270.233 100.427C270.94 96.6013 268.527 92.0933 263.483 87.293C261.704 85.6116 258.829 86.1477 257.781 88.3651C256.222 91.606 254.297 94.6519 251.982 97.5272C250.349 99.5497 251.421 102.571 253.931 103.205C258.439 104.326 262.338 105.422 265.554 106.494C265.676 106.543 265.798 106.567 265.92 106.616C268.357 104.74 269.819 102.669 270.233 100.451V100.427ZM84.993 104.984C67.3998 99.8665 51.4636 93.994 38.2078 87.6341C37.7692 87.4148 37.3306 87.1955 36.892 87.0005C35.3325 86.2208 33.6024 85.8309 31.848 85.8797C16.8377 86.2208 10.4535 87.4392 7.82186 88.2433C10.9652 89.9734 20.2248 93.6528 46.8095 98.7212C58.1403 100.89 71.0793 103.01 85.0173 104.984H84.993Z" fill="white"/>
</svg>
