<svg width="164" height="185" viewBox="0 0 164 185" fill="none" xmlns="http://www.w3.org/2000/svg">
<path d="M111.673 8.64254C85.7459 8.64254 64.3027 41.3922 60.7695 83.9374C49.0975 76.4323 39.8624 65.4426 34.5503 52.4549C45.8567 49.3603 54.1903 39.0041 54.1903 26.723C54.1903 11.9565 42.226 -0.0078125 27.4594 -0.0078125C12.6928 -0.0078125 0.728516 11.9565 0.728516 26.723C0.728516 41.4896 12.6928 53.4539 27.4594 53.4539C28.5072 53.4539 29.5306 53.3808 30.5297 53.259C36.4022 68.0012 47.0019 80.3798 60.4527 88.4941C60.3065 91.1014 60.2334 93.7086 60.2334 96.3647C60.2334 144.807 83.2604 184.087 111.648 184.087C140.036 184.087 163.063 144.807 163.063 96.3647C163.063 47.9226 140.036 8.64254 111.648 8.64254H111.673ZM104.606 176.898C82.5538 176.898 63.523 140.835 63.523 96.3647C63.523 94.3178 63.5717 92.2954 63.6448 90.2973C73.7329 95.7068 85.2586 98.7771 97.4909 98.7771V94.7808C97.3691 94.7808 97.2472 94.7808 97.1254 94.7808C77.4367 94.6834 63.4255 75.3845 69.0543 56.4998C76.267 32.23 89.7665 15.8553 104.606 15.8553C126.659 15.8553 144.52 51.9188 144.52 96.3891C144.52 140.859 126.659 176.923 104.606 176.923V176.898Z" fill="white"/>
</svg>
