<svg version="1.1" id="Layer_1" xmlns="http://www.w3.org/2000/svg" xmlns:xlink="http://www.w3.org/1999/xlink" x="0px" y="0px"
	 width="100%" viewBox="0 0 1000 1000" enable-background="new 0 0 1000 1000" xml:space="preserve">
<path fill="#EAFF57" opacity="1.000000" stroke="none" 
	d="
M313.586548,723.478271 
	C251.283524,578.952209 189.243515,434.727448 126.854050,290.653992 
	C121.462166,278.202759 114.264366,266.432922 106.987061,254.927429 
	C99.919403,243.753387 90.194656,235.139114 77.234245,230.747849 
	C77.234245,228.996277 77.234245,227.365936 77.234245,225.120773 
	C80.711319,225.277466 83.981918,225.337860 87.238396,225.584747 
	C131.316650,228.926147 175.416733,230.658966 219.577057,227.278610 
	C226.712585,226.732422 233.806808,225.404648 240.944336,225.167618 
	C272.592682,224.116684 296.531281,238.701996 315.486694,262.809814 
	C332.170807,284.028900 342.966797,308.429016 352.010284,333.545990 
	C360.634308,357.497833 368.011230,381.895844 376.246124,405.991852 
	C380.613922,418.772461 385.768372,431.249969 394.498505,441.877533 
	C408.608978,459.054810 429.116058,465.101074 447.587982,456.985962 
	C458.135468,452.352203 466.051636,444.977814 470.388611,433.807007 
	C484.246887,398.111725 498.417267,362.537689 512.437805,326.905273 
	C513.162231,325.064087 514.145874,323.106018 514.111145,321.218872 
	C513.774231,302.909851 514.425293,284.477448 512.473572,266.329865 
	C510.015076,243.470078 499.064758,234.179199 476.250946,231.953659 
	C473.316559,231.667389 470.410553,231.090332 467.107269,230.589783 
	C466.989471,228.841766 466.882935,227.261536 466.753693,225.343811 
	C612.026794,225.343811 756.949768,225.343811 902.184204,225.343811 
	C905.818054,245.018173 909.472107,264.802032 913.126221,284.585815 
	C916.665039,303.745605 920.209900,322.904205 923.734741,342.066559 
	C924.141846,344.279572 925.341492,347.183899 921.909119,347.660309 
	C920.376709,347.873047 918.085266,346.485992 916.955566,345.139313 
	C904.543152,330.342102 892.869995,314.883392 879.884033,300.616577 
	C846.809570,264.279877 805.250671,243.447937 756.722717,237.460007 
	C732.807617,234.509094 708.600708,233.393738 684.489807,232.699844 
	C657.022217,231.909348 629.514404,232.510971 602.024109,232.524033 
	C600.573059,232.524719 599.122131,232.679077 597.452148,232.774414 
	C597.452148,308.405304 597.452148,383.684448 597.452148,459.260071 
	C598.296204,459.445801 599.214600,459.823029 600.133606,459.824677 
	C631.127991,459.879517 662.144958,460.297546 692.954285,456.016205 
	C715.410217,452.895660 737.170166,447.679504 755.882996,433.871765 
	C772.950684,421.277832 782.518555,403.546448 789.780518,384.258301 
	C791.069031,380.835907 791.914795,377.235382 793.366760,373.891571 
	C793.953369,372.540649 795.617859,371.657745 796.791809,370.561829 
	C797.168762,370.869263 797.545654,371.176697 797.922607,371.484100 
	C797.922607,432.558533 797.922607,493.632935 797.922607,556.491699 
	C795.573853,554.604553 793.710999,553.778870 792.918396,552.356567 
	C789.191345,545.668945 785.703796,538.845276 782.229126,532.020081 
	C764.099060,496.407806 734.702271,477.121033 695.582642,471.114960 
	C663.453979,466.182220 631.158020,466.454559 598.836548,466.458405 
	C598.531982,466.458435 598.227478,466.692383 597.548157,466.970612 
	C597.444946,468.057434 597.218567,469.328705 597.218567,470.599945 
	C597.220398,549.760742 597.174438,628.921631 597.356201,708.082092 
	C597.375671,716.541504 598.156860,725.096436 599.581238,733.436890 
	C603.646301,757.238708 617.008728,768.752197 641.166565,769.988647 
	C643.618896,770.114197 646.083191,770.005493 648.831299,770.005493 
	C648.831299,772.569641 648.831299,774.448059 648.831299,776.984192 
	C586.985657,772.648376 525.444397,772.453796 463.530457,776.994629 
	C463.530457,774.577026 463.530457,772.700928 463.530457,770.352234 
	C465.545380,770.252014 467.491364,770.135071 469.438995,770.061523 
	C494.409760,769.118103 508.416351,757.073853 511.857056,732.250671 
	C513.542847,720.088684 514.183411,707.693665 514.201416,695.402527 
	C514.371582,579.244507 514.305542,463.086121 514.307556,346.927856 
	C514.307617,345.774261 514.307617,344.620667 514.307617,343.467041 
	C513.968140,343.343323 513.628723,343.219574 513.289246,343.095825 
	C512.724182,344.452393 512.137451,345.800385 511.597046,347.166687 
	C455.567352,488.817719 399.547394,630.472595 343.443451,772.094238 
	C342.751068,773.841980 341.184540,776.066711 339.658142,776.404053 
	C338.401825,776.681702 335.820892,774.830200 335.157379,773.332825 
	C327.873444,756.895142 320.850525,740.341736 313.586548,723.478271 
M302.348511,487.101044 
	C327.604218,545.795898 352.859955,604.490723 378.635406,664.393433 
	C406.211273,594.932556 433.223419,526.891602 460.672119,457.751099 
	C433.984314,475.358887 399.391632,466.956543 383.169739,437.069153 
	C379.050385,429.479645 374.993225,421.724396 372.118469,413.615967 
	C363.390228,388.997528 355.614288,364.039856 346.788239,339.458160 
	C337.819397,314.478638 326.983459,290.317413 310.677094,269.062561 
	C298.238892,252.849670 283.272888,240.042175 263.015198,234.535034 
	C234.639404,226.820908 209.850464,249.318100 215.722687,278.053528 
	C217.706345,287.760437 220.977844,297.360199 224.864487,306.496887 
	C250.406952,366.541840 276.278656,426.446747 302.348511,487.101044 
z"/>
</svg>