<svg width="362" height="184" viewBox="0 0 362 184" fill="none" xmlns="http://www.w3.org/2000/svg">
<path d="M269.075 182.04L228.691 161.298C227.379 160.618 225.81 160.618 224.498 161.298L183.096 182.567C181.784 183.246 180.214 183.246 178.903 182.567L137.5 161.298C136.188 160.618 134.619 160.618 133.307 161.298L92.9234 182.04C91.0845 182.989 88.8358 182.579 87.4303 181.056L65.0952 156.625C64.1816 155.617 62.8582 155.079 61.4996 155.137L29.9352 156.554C27.2414 156.671 25.0161 154.458 25.1449 151.764L26.5621 120.2C26.6206 118.841 26.0819 117.518 25.0746 116.604L1.76735 95.2995C-0.22372 93.4724 -0.22372 90.3454 1.76735 88.5183L25.0746 67.2137C26.0819 66.3002 26.6206 64.9767 26.5621 63.6181L25.1449 32.0537C25.0278 29.3599 27.2414 27.1346 29.9352 27.2634L61.4996 28.6806C62.8582 28.7391 64.1816 28.2003 65.0952 27.1931L87.4303 2.76147C88.8241 1.22717 91.0728 0.828995 92.9234 1.77768L133.307 22.5199C134.619 23.1992 136.188 23.1992 137.5 22.5199L178.903 1.25069C180.214 0.571384 181.784 0.571384 183.096 1.25069L224.498 22.5199C225.81 23.1992 227.379 23.1992 228.691 22.5199L269.075 1.77768C270.914 0.828995 273.162 1.23888 274.568 2.76147L296.903 27.1931C297.816 28.2003 299.14 28.7391 300.499 28.6806L332.063 27.2634C334.757 27.1463 336.982 29.3599 336.853 32.0537L335.436 63.6181C335.378 64.9767 335.916 66.3002 336.924 67.2137L360.231 88.5183C362.222 90.3337 362.222 93.4724 360.231 95.2995L336.924 116.604C335.916 117.518 335.378 118.841 335.436 120.2L336.853 151.764C336.97 154.458 334.757 156.683 332.063 156.554L300.499 155.137C299.14 155.079 297.816 155.617 296.903 156.625L274.568 181.056C273.174 182.59 270.925 182.989 269.075 182.04Z" fill="#F94400"/>
<path d="M135.392 141.785L180.999 165.209L226.595 141.785L268.548 163.335L291.422 138.318L319.894 139.594L318.617 111.122L339.641 91.9023L318.617 72.6827L319.894 44.2103L291.422 45.4869L268.548 20.4696L226.595 42.0201L180.987 18.5957L135.392 42.0201L93.4387 20.4696L70.5648 45.4869L42.0925 44.2103L43.3691 72.6827L22.3457 91.9023L43.3691 111.122L42.0925 139.594L70.5648 138.318L93.4387 163.335L135.392 141.785Z" fill="#FFA300"/>
<path d="M135.392 116.112L180.999 139.536L226.595 116.112L263.465 135.051L281.771 115.023L295.954 115.655L295.322 101.472L305.793 91.9029L295.322 82.3342L295.954 68.1507L281.771 68.7831L263.465 48.7553L226.595 67.6939L180.987 44.2695L135.392 67.6939L98.5218 48.7553L80.2157 68.7831L66.0322 68.1507L66.6646 82.3342L56.194 91.9029L66.6646 101.472L66.0322 115.655L80.2157 115.023L98.5218 135.051L135.392 116.112Z" fill="#FCDC00"/>
<path d="M98.1822 80.6475C98.1822 82.1701 97.8192 83.3413 97.093 84.1612C96.3668 84.981 95.6758 85.6017 95.02 86.0468C94.0596 86.8081 92.982 87.3937 91.7991 87.8036C90.6162 88.2136 89.3629 88.4127 88.0512 88.4127H87.0674V80.6475H64.8376V104.599H87.1376V96.2599H98.0534V104.353C98.0534 105.829 97.7957 107.105 97.2687 108.195C96.7416 109.284 96.0272 110.186 95.1254 110.888C94.2235 111.603 93.1577 112.13 91.9396 112.481C90.7099 112.833 89.4215 113.008 88.0629 113.008H63.6664C62.3546 113.008 61.1014 112.809 59.9185 112.399C58.7356 111.989 57.6932 111.415 56.7913 110.678C55.8895 109.94 55.1751 109.061 54.648 108.019C54.121 106.988 53.8633 105.817 53.8633 104.505V80.3899C53.8633 79.1952 54.121 78.0826 54.648 77.0754C55.1751 76.0681 55.8895 75.1897 56.7913 74.4636C57.6932 73.7257 58.7356 73.1401 59.9185 72.7067C61.1014 72.2734 62.378 72.0508 63.7367 72.0508H88.0746C91.1432 72.0508 93.6028 72.7887 95.4416 74.2527C97.2804 75.7284 98.2057 77.8483 98.2057 80.624L98.1822 80.6475Z" fill="#D80000"/>
<path d="M136.985 113.102L121.267 88.2482H138.367V80.647H116.067V103.287C116.067 107.152 115.118 109.775 113.244 111.134C112.284 111.848 111.183 112.305 109.953 112.528C108.723 112.75 107.47 112.856 106.205 112.856H105.092V72.062H139.292C142.361 72.062 144.797 72.7999 146.589 74.2639C148.392 75.7396 149.283 77.8595 149.283 80.6353V88.4005C149.283 91.0123 148.463 93.0619 146.811 94.5259C145.172 96.0017 142.829 96.8216 139.807 96.9739L150.337 113.078H136.985V113.102Z" fill="#D80000"/>
<path d="M190.451 113.02V96.9153H168.221V103.287C168.221 105.301 167.975 106.859 167.495 107.948C167.015 109.037 166.265 109.963 165.258 110.724C164.333 111.438 163.232 111.989 161.932 112.399C160.643 112.809 159.285 113.008 157.891 113.008H157.235V81.0453C157.235 79.4642 157.493 78.1172 158.02 77.0045C158.547 75.8919 159.273 74.9549 160.187 74.2287C161.112 73.4909 162.166 72.9521 163.372 72.589C164.579 72.2376 165.844 72.062 167.155 72.062H201.554V113.02H190.439H190.451ZM190.451 80.647H168.221V88.2482H190.451V80.647Z" fill="#D80000"/>
<path d="M208.476 113.02V108.277C208.476 106.965 208.945 105.595 209.893 104.142C210.83 102.702 212.037 101.249 213.477 99.8086C214.93 98.368 216.499 96.9508 218.209 95.5571C219.919 94.1633 221.535 92.8751 223.081 91.6687C225.096 90.0876 226.864 88.729 228.375 87.5812C229.886 86.4334 231.198 85.4262 232.287 84.5595C233.388 83.6928 234.348 82.9549 235.18 82.3576C236.011 81.7602 236.784 81.1862 237.487 80.6358H217.366C215.609 80.6358 214.156 80.4719 212.997 80.1439C211.837 79.816 210.924 79.3241 210.268 78.6682C209.612 78.0123 209.155 77.2276 208.886 76.3023C208.628 75.3771 208.488 74.3932 208.488 73.3625V72.0508H254.856V75.9743C254.856 77.4501 254.575 78.8087 254.001 80.0619C253.427 81.3151 252.643 82.5449 251.635 83.7395C250.628 84.9342 249.445 86.1289 248.087 87.3001C246.728 88.4713 245.299 89.6308 243.812 90.7786V90.6146C240.087 93.5075 236.632 96.1896 233.458 98.6726C230.284 101.156 227.684 103.123 225.67 104.599H245.463C247.653 104.599 249.387 104.857 250.663 105.372C251.94 105.887 252.9 106.543 253.556 107.34C254.212 108.124 254.622 108.991 254.774 109.916C254.927 110.842 255.009 111.685 255.009 112.446V113.02H208.511H208.476Z" fill="#D80000"/>
<path d="M306.144 104.763C306.144 106.508 305.781 107.925 305.055 109.014C304.329 110.103 303.438 110.946 302.361 111.544C301.283 112.141 300.1 112.539 298.812 112.727C297.512 112.914 296.306 113.008 295.158 113.008H272.143V112.188C272.143 110.279 272.553 108.791 273.362 107.737C274.17 106.672 275.118 105.91 276.184 105.453C277.262 104.997 278.374 104.727 279.534 104.68C280.693 104.622 281.607 104.599 282.263 104.599H295.158V96.9153H272.003C271.347 96.9153 270.445 96.9621 269.309 97.0324C268.173 97.1143 267.037 97.009 265.924 96.7045C264.812 96.4117 263.851 95.7791 263.066 94.8187C262.282 93.87 261.884 92.3827 261.884 90.3682V72.1439H262.809C263.512 72.1439 264.437 72.2025 265.608 72.3079C266.768 72.4133 267.892 72.6945 268.958 73.1279C270.035 73.5612 270.96 74.2756 271.757 75.2477C272.553 76.2198 272.94 77.6487 272.94 79.4992V88.2482H295.17V72.062H306.156V104.763H306.144Z" fill="#D80000"/>
<path style="mix-blend-mode:hard-light" opacity="0.28" d="M269.075 182.04L228.691 161.298C227.379 160.618 225.81 160.618 224.498 161.298L183.096 182.567C181.784 183.246 180.214 183.246 178.903 182.567L137.5 161.298C136.188 160.618 134.619 160.618 133.307 161.298L92.9234 182.04C91.0845 182.989 88.8358 182.579 87.4303 181.056L65.0952 156.625C64.1816 155.617 62.8582 155.079 61.4996 155.137L29.9352 156.554C27.2414 156.671 25.0161 154.458 25.1449 151.764L26.5621 120.2C26.6206 118.841 26.0819 117.518 25.0746 116.604L1.76735 95.2995C-0.22372 93.4724 -0.22372 90.3454 1.76735 88.5183L25.0746 67.2137C26.0819 66.3002 26.6206 64.9767 26.5621 63.6181L25.1449 32.0537C25.0278 29.3599 27.2414 27.1346 29.9352 27.2634L61.4996 28.6806C62.8582 28.7391 64.1816 28.2003 65.0952 27.1931L87.4303 2.76147C88.8241 1.22717 91.0728 0.828995 92.9234 1.77768L133.307 22.5199C134.619 23.1992 136.188 23.1992 137.5 22.5199L178.903 1.25069C180.214 0.571384 181.784 0.571384 183.096 1.25069L224.498 22.5199C225.81 23.1992 227.379 23.1992 228.691 22.5199L269.075 1.77768C270.914 0.828995 273.162 1.23888 274.568 2.76147L296.903 27.1931C297.816 28.2003 299.14 28.7391 300.499 28.6806L332.063 27.2634C334.757 27.1463 336.982 29.3599 336.853 32.0537L335.436 63.6181C335.378 64.9767 335.916 66.3002 336.924 67.2137L360.231 88.5183C362.222 90.3337 362.222 93.4724 360.231 95.2995L336.924 116.604C335.916 117.518 335.378 118.841 335.436 120.2L336.853 151.764C336.97 154.458 334.757 156.683 332.063 156.554L300.499 155.137C299.14 155.079 297.816 155.617 296.903 156.625L274.568 181.056C273.174 182.59 270.925 182.989 269.075 182.04Z" fill="url(#paint0_linear_902_643)"/>
<g style="mix-blend-mode:overlay" opacity="0.45">
<path d="M336.678 66.9321C336.924 67.6583 337.334 68.3259 337.908 68.8529L361.215 90.1574C361.308 90.2393 361.367 90.3447 361.461 90.4267C361.226 89.7123 360.828 89.0448 360.231 88.506L336.924 67.2015C336.83 67.1195 336.771 67.0141 336.689 66.9321H336.678Z" fill="white"/>
<path d="M2.73948 90.1574L26.0467 68.853C27.054 67.9394 27.5928 66.6159 27.5342 65.2572L26.117 33.6929C25.9999 30.9991 28.2135 28.7739 30.9073 28.9027L62.4717 30.3198C63.8303 30.3784 65.1538 29.8396 66.0673 28.8323L88.4025 4.40072C89.7963 2.86642 92.045 2.46825 93.8955 3.41694L134.279 24.1592C135.591 24.8385 137.16 24.8385 138.472 24.1592L179.875 2.8898C181.187 2.21049 182.756 2.21049 184.068 2.8898L225.47 24.1592C226.782 24.8385 228.352 24.8385 229.663 24.1592L270.047 3.41694C271.886 2.46825 274.134 2.87813 275.54 4.40072L297.875 28.8323C298.789 29.8396 300.112 30.3784 301.471 30.3198L333.035 28.9027C334.441 28.8441 335.694 29.418 336.584 30.355C335.94 28.4927 334.148 27.1575 332.051 27.2512L300.487 28.6684C299.128 28.7269 297.805 28.1881 296.891 27.1809L274.556 2.74926C273.162 1.21496 270.914 0.816788 269.063 1.76548L228.679 22.5077C227.368 23.187 225.798 23.187 224.486 22.5077L183.084 1.23848C181.772 0.559177 180.203 0.559177 178.891 1.23848L137.488 22.5077C136.177 23.187 134.607 23.187 133.295 22.5077L92.9117 1.76548C91.0729 0.816788 88.8241 1.22668 87.4186 2.74926L65.0835 27.1809C64.17 28.1881 62.8465 28.7269 61.4879 28.6684L29.9235 27.2512C27.2297 27.1341 25.0044 29.3477 25.1332 32.0415L26.5504 63.6059C26.6089 64.9645 26.0702 66.288 25.0629 67.2015L1.75566 88.5061C-0.141712 90.2395 -0.211975 93.1674 1.50972 95.018C0.947532 93.3548 1.34573 91.434 2.73948 90.1574Z" fill="white"/>
<path d="M26.117 153.403L27.5342 121.839C27.5928 120.597 27.1243 119.415 26.281 118.513C26.4567 119.051 26.5621 119.614 26.5387 120.187L25.1215 151.752C25.063 153.052 25.5549 154.223 26.3747 155.09C26.1873 154.563 26.0936 153.989 26.117 153.403Z" fill="white"/>
</g>
<defs>
<linearGradient id="paint0_linear_902_643" x1="64.2519" y1="25.0616" x2="309.599" y2="165.538" gradientUnits="userSpaceOnUse">
<stop stop-color="white"/>
<stop offset="0.27" stop-color="#969698"/>
<stop offset="0.45" stop-color="#545458"/>
<stop offset="0.5" stop-color="#66666A"/>
<stop offset="0.59" stop-color="#97979A"/>
<stop offset="0.73" stop-color="#E6E6E6"/>
<stop offset="0.77" stop-color="white"/>
<stop offset="0.8" stop-color="#FAFAFA"/>
<stop offset="0.83" stop-color="#EDEDEE"/>
<stop offset="0.86" stop-color="#D8D8D9"/>
<stop offset="0.89" stop-color="#BABABC"/>
<stop offset="0.92" stop-color="#949496"/>
<stop offset="0.96" stop-color="#656568"/>
<stop offset="0.99" stop-color="#2E2E33"/>
<stop offset="1" stop-color="#1B1B20"/>
</linearGradient>
</defs>
</svg>
