<?xml version="1.0" encoding="UTF-8"?>
<svg id="Layer_1" xmlns="http://www.w3.org/2000/svg" viewBox="0 0 485 485">
  <defs>
    <style>
      .cls-1 {
        fill: #000;
      }

      .cls-2 {
        fill: #ebff57;
      }

      .cls-3 {
        fill: #acadaf;
      }
    </style>
  </defs>
  <g>
    <path class="cls-1" d="M.5,96.5v-38.12c3.93,19.11,19.01,34.2,38.12,38.12H.5Z"/>
    <path class="cls-3" d="M1,62.45c4.74,16.1,17.45,28.82,33.55,33.55H1v-33.55M0,48.5v48.5h48.5C21.71,97,0,75.29,0,48.5h0Z"/>
  </g>
  <g>
    <path class="cls-1" d="M.5.5h38.07c-9.3,1.9-17.85,6.48-24.73,13.35C6.98,20.72,2.4,29.27.5,38.57V.5Z"/>
    <path class="cls-3" d="M34.49,1c-7.85,2.3-15.05,6.55-21,12.49C7.55,19.44,3.3,26.64,1,34.49V1h33.49M48.5,0H0v48.5c0-13.4,5.43-25.52,14.2-34.3C22.98,5.43,35.1,0,48.5,0h0Z"/>
  </g>
  <g>
    <path class="cls-1" d="M96.5,38.57c-1.9-9.3-6.48-17.85-13.35-24.73-6.87-6.87-15.42-11.44-24.73-13.35h38.07v38.07Z"/>
    <path class="cls-3" d="M96,1v33.49c-2.3-7.85-6.55-15.05-12.49-21-5.95-5.94-13.15-10.19-21-12.49h33.49M97,0h-48.5c13.4,0,25.52,5.43,34.3,14.2,8.77,8.78,14.2,20.9,14.2,34.3V0h0Z"/>
  </g>
  <g>
    <path class="cls-2" d="M242.5,484.5c-26.47,0-48-21.53-48-48,0-13.08-5.1-25.39-14.35-34.65-9.26-9.25-21.57-14.35-34.65-14.35-26.47,0-48-21.53-48-48,0-13.08-5.1-25.39-14.35-34.65-9.26-9.25-21.57-14.35-34.65-14.35-26.47,0-48-21.53-48-48,0-12.82,4.99-24.87,14.05-33.95,9.07-9.06,21.13-14.05,33.95-14.05v-1c-26.47,0-48-21.53-48-48,0-12.82,4.99-24.87,14.05-33.95,9.07-9.06,21.13-14.05,33.95-14.05v-1C22.03,96.5.5,74.97.5,48.5c0-12.82,4.99-24.87,14.05-33.95C23.63,5.49,35.68.5,48.5.5s24.87,4.99,33.95,14.05c9.06,9.07,14.05,21.13,14.05,33.95v194c0,27.02,21.98,49,49,49,12.82,0,24.87,4.99,33.95,14.05,9.06,9.07,14.05,21.13,14.05,33.95,0,27.02,21.98,49,49,49,13.08,0,25.39-5.09,34.65-14.35,9.25-9.26,14.35-21.57,14.35-34.65s4.99-24.87,14.05-33.95c9.07-9.06,21.13-14.05,33.95-14.05s25.39-5.09,34.65-14.35c9.25-9.26,14.35-21.57,14.35-34.65V48.5c0-12.82,4.99-24.87,14.05-33.95,9.07-9.06,21.13-14.05,33.95-14.05s24.87,4.99,33.95,14.05c9.06,9.07,14.05,21.13,14.05,33.95s-4.99,24.87-14.05,33.95c-9.07,9.06-21.13,14.05-33.95,14.05v1c12.82,0,24.87,4.99,33.95,14.05,9.06,9.07,14.05,21.13,14.05,33.95s-4.99,24.87-14.05,33.95c-9.07,9.06-21.13,14.05-33.95,14.05v1c12.82,0,24.87,4.99,33.95,14.05,9.06,9.07,14.05,21.13,14.05,33.95s-4.99,24.87-14.05,33.95c-9.07,9.06-21.13,14.05-33.95,14.05s-25.39,5.09-34.65,14.35c-9.25,9.26-14.35,21.57-14.35,34.65s-4.99,24.87-14.05,33.95c-9.07,9.06-21.13,14.05-33.95,14.05s-25.39,5.09-34.65,14.35c-9.25,9.26-14.35,21.57-14.35,34.65s-4.99,24.87-14.05,33.95c-9.07,9.06-21.13,14.05-33.95,14.05Z"/>
    <path d="M436.5,1c12.68,0,24.61,4.94,33.59,13.91,8.97,8.98,13.91,20.91,13.91,33.59s-4.94,24.61-13.91,33.59c-8.98,8.97-20.91,13.91-33.59,13.91v2c12.68,0,24.61,4.94,33.59,13.91,8.97,8.98,13.91,20.91,13.91,33.59s-4.94,24.61-13.91,33.59c-8.98,8.97-20.91,13.91-33.59,13.91v2c12.68,0,24.61,4.94,33.59,13.91,8.97,8.98,13.91,20.91,13.91,33.59s-4.94,24.61-13.91,33.59c-8.98,8.97-20.91,13.91-33.59,13.91s-25.65,5.15-35.01,14.49c-9.35,9.36-14.49,21.79-14.49,35.01s-4.94,24.61-13.91,33.59c-8.98,8.97-20.91,13.91-33.59,13.91s-25.65,5.15-35.01,14.49c-9.35,9.36-14.49,21.79-14.49,35.01s-4.94,24.61-13.91,33.59c-8.98,8.97-20.91,13.91-33.59,13.91-26.19,0-47.5-21.31-47.5-47.5,0-13.22-5.15-25.65-14.49-35.01-9.36-9.35-21.79-14.49-35.01-14.49-26.19,0-47.5-21.31-47.5-47.5,0-13.22-5.15-25.65-14.49-35.01-9.36-9.35-21.79-14.49-35.01-14.49-26.19,0-47.5-21.31-47.5-47.5,0-12.68,4.94-24.61,13.91-33.59,8.98-8.97,20.91-13.91,33.59-13.91v-2c-26.19,0-47.5-21.31-47.5-47.5,0-12.68,4.94-24.61,13.91-33.59,8.98-8.97,20.91-13.91,33.59-13.91v-2C22.31,96,1,74.69,1,48.5c0-12.68,4.94-24.61,13.91-33.59C23.89,5.94,35.82,1,48.5,1s24.61,4.94,33.59,13.91c8.97,8.98,13.91,20.91,13.91,33.59v194c0,27.29,22.21,49.5,49.5,49.5,12.68,0,24.61,4.94,33.59,13.91,8.97,8.98,13.91,20.91,13.91,33.59,0,27.29,22.21,49.5,49.5,49.5,13.22,0,25.65-5.15,35.01-14.49,9.35-9.36,14.49-21.79,14.49-35.01s4.94-24.61,13.91-33.59c8.98-8.97,20.91-13.91,33.59-13.91s25.65-5.15,35.01-14.49c9.35-9.36,14.49-21.79,14.49-35.01V48.5c0-12.68,4.94-24.61,13.91-33.59,8.98-8.97,20.91-13.91,33.59-13.91M436.5,0c-13.4,0-25.52,5.43-34.3,14.2-8.77,8.78-14.2,20.9-14.2,34.3v194c0,13.4-5.43,25.52-14.2,34.3-8.78,8.77-20.9,14.2-34.3,14.2s-25.52,5.43-34.3,14.2c-8.77,8.78-14.2,20.9-14.2,34.3s-5.43,25.52-14.2,34.3c-8.78,8.77-20.9,14.2-34.3,14.2-26.79,0-48.5-21.71-48.5-48.5,0-13.4-5.43-25.52-14.2-34.3-8.78-8.77-20.9-14.2-34.3-14.2-26.79,0-48.5-21.71-48.5-48.5V48.5c0-13.4-5.43-25.52-14.2-34.3C74.02,5.43,61.9,0,48.5,0S22.98,5.43,14.2,14.2C5.43,22.98,0,35.1,0,48.5c0,26.79,21.71,48.5,48.5,48.5-13.4,0-25.52,5.43-34.3,14.2C5.43,119.98,0,132.1,0,145.5c0,26.79,21.71,48.5,48.5,48.5-13.4,0-25.52,5.43-34.3,14.2-8.77,8.78-14.2,20.9-14.2,34.3,0,26.79,21.71,48.5,48.5,48.5,13.4,0,25.52,5.43,34.3,14.2,8.77,8.78,14.2,20.9,14.2,34.3,0,26.79,21.71,48.5,48.5,48.5,13.4,0,25.52,5.43,34.3,14.2,8.77,8.78,14.2,20.9,14.2,34.3,0,26.79,21.71,48.5,48.5,48.5,13.4,0,25.52-5.43,34.3-14.2,8.77-8.78,14.2-20.9,14.2-34.3s5.43-25.52,14.2-34.3c8.78-8.77,20.9-14.2,34.3-14.2s25.52-5.43,34.3-14.2c8.77-8.78,14.2-20.9,14.2-34.3s5.43-25.52,14.2-34.3c8.78-8.77,20.9-14.2,34.3-14.2s25.52-5.43,34.3-14.2c8.77-8.78,14.2-20.9,14.2-34.3s-5.43-25.52-14.2-34.3c-8.78-8.77-20.9-14.2-34.3-14.2,13.4,0,25.52-5.43,34.3-14.2,8.77-8.78,14.2-20.9,14.2-34.3s-5.43-25.52-14.2-34.3c-8.78-8.77-20.9-14.2-34.3-14.2,13.4,0,25.52-5.43,34.3-14.2,8.77-8.78,14.2-20.9,14.2-34.3s-5.43-25.52-14.2-34.3c-8.78-8.77-20.9-14.2-34.3-14.2h0Z"/>
  </g>
  <g>
    <rect class="cls-1" x="97.5" y=".5" width="96" height="96"/>
    <path class="cls-3" d="M193,1v95h-95V1h95M194,0h-97v97h97V0h0Z"/>
  </g>
  <g>
    <path class="cls-1" d="M145.5,96.5c-26.47,0-48-21.53-48-48S119.03.5,145.5.5s48,21.53,48,48-21.53,48-48,48Z"/>
    <path class="cls-3" d="M145.5,1c26.19,0,47.5,21.31,47.5,47.5s-21.31,47.5-47.5,47.5-47.5-21.31-47.5-47.5S119.31,1,145.5,1M145.5,0h0c-26.79,0-48.5,21.71-48.5,48.5h0c0,26.79,21.71,48.5,48.5,48.5h0c26.79,0,48.5-21.71,48.5-48.5h0c0-26.79-21.71-48.5-48.5-48.5h0Z"/>
  </g>
  <g>
    <rect class="cls-1" x="194.5" y=".5" width="96" height="96"/>
    <path class="cls-3" d="M290,1v95h-95V1h95M291,0h-97v97h97V0h0Z"/>
  </g>
  <g>
    <path class="cls-1" d="M242.5,96.5c-26.47,0-48-21.53-48-48S216.03.5,242.5.5s48,21.53,48,48-21.53,48-48,48Z"/>
    <path class="cls-3" d="M242.5,1c26.19,0,47.5,21.31,47.5,47.5s-21.31,47.5-47.5,47.5-47.5-21.31-47.5-47.5S216.31,1,242.5,1M242.5,0h0c-26.79,0-48.5,21.71-48.5,48.5h0c0,26.79,21.71,48.5,48.5,48.5h0c26.79,0,48.5-21.71,48.5-48.5h0c0-26.79-21.71-48.5-48.5-48.5h0Z"/>
  </g>
  <g>
    <rect class="cls-1" x="291.5" y=".5" width="96" height="96"/>
    <path class="cls-3" d="M387,1v95h-95V1h95M388,0h-97v97h97V0h0Z"/>
  </g>
  <g>
    <path class="cls-1" d="M339.5,96.5c-26.47,0-48-21.53-48-48S313.03.5,339.5.5s48,21.53,48,48-21.53,48-48,48Z"/>
    <path class="cls-3" d="M339.5,1c26.19,0,47.5,21.31,47.5,47.5s-21.31,47.5-47.5,47.5-47.5-21.31-47.5-47.5S313.31,1,339.5,1M339.5,0h0c-26.79,0-48.5,21.71-48.5,48.5h0c0,26.79,21.71,48.5,48.5,48.5h0c26.79,0,48.5-21.71,48.5-48.5h0c0-26.79-21.71-48.5-48.5-48.5h0Z"/>
  </g>
  <g>
    <path class="cls-1" d="M388.5.5h38.07c-9.3,1.9-17.85,6.48-24.73,13.35-6.87,6.87-11.44,15.42-13.35,24.73V.5Z"/>
    <path class="cls-3" d="M422.49,1c-7.85,2.3-15.05,6.55-21,12.49-5.94,5.95-10.19,13.15-12.49,21V1h33.49M436.5,0h-48.5v48.5c0-13.4,5.43-25.52,14.2-34.3,8.78-8.77,20.9-14.2,34.3-14.2h0Z"/>
  </g>
  <g>
    <path class="cls-1" d="M484.5,38.57c-1.9-9.3-6.48-17.85-13.35-24.73-6.87-6.87-15.42-11.44-24.73-13.35h38.07v38.07Z"/>
    <path class="cls-3" d="M484,1v33.49c-2.3-7.85-6.55-15.05-12.49-21-5.95-5.94-13.15-10.19-21-12.49h33.49M485,0h-48.5c13.4,0,25.52,5.43,34.3,14.2,8.77,8.78,14.2,20.9,14.2,34.3V0h0Z"/>
  </g>
  <g>
    <path class="cls-1" d="M446.43,96.5c9.3-1.9,17.85-6.48,24.73-13.35,6.87-6.87,11.44-15.42,13.35-24.73v38.07h-38.07Z"/>
    <path class="cls-3" d="M484,62.51v33.49h-33.49c7.85-2.3,15.05-6.55,21-12.49,5.94-5.95,10.19-13.15,12.49-21M485,48.5c0,13.4-5.43,25.52-14.2,34.3-8.78,8.77-20.9,14.2-34.3,14.2h48.5v-48.5h0Z"/>
  </g>
  <g>
    <path class="cls-1" d="M.5,193.5v-38.12c3.93,19.11,19.01,34.2,38.12,38.12H.5Z"/>
    <path class="cls-3" d="M1,159.45c4.74,16.1,17.45,28.82,33.55,33.55H1v-33.55M0,145.5v48.5h48.5c-26.79,0-48.5-21.71-48.5-48.5h0Z"/>
  </g>
  <g>
    <path class="cls-1" d="M.5,97.5h38.07c-9.3,1.9-17.85,6.48-24.73,13.35-6.87,6.87-11.44,15.42-13.35,24.73v-38.07Z"/>
    <path class="cls-3" d="M34.49,98c-7.85,2.3-15.05,6.55-21,12.49-5.94,5.95-10.19,13.15-12.49,21v-33.49h33.49M48.5,97H0v48.5c0-13.4,5.43-25.52,14.2-34.3,8.78-8.77,20.9-14.2,34.3-14.2h0Z"/>
  </g>
  <g>
    <rect class="cls-1" x="97.5" y="97.5" width="96" height="96"/>
    <path class="cls-3" d="M193,98v95h-95v-95h95M194,97h-97v97h97v-97h0Z"/>
  </g>
  <g>
    <path class="cls-1" d="M145.5,193.5c-26.47,0-48-21.53-48-48s21.53-48,48-48,48,21.53,48,48-21.53,48-48,48Z"/>
    <path class="cls-3" d="M145.5,98c26.19,0,47.5,21.31,47.5,47.5s-21.31,47.5-47.5,47.5-47.5-21.31-47.5-47.5,21.31-47.5,47.5-47.5M145.5,97h0c-26.79,0-48.5,21.71-48.5,48.5h0c0,26.79,21.71,48.5,48.5,48.5h0c26.79,0,48.5-21.71,48.5-48.5h0c0-26.79-21.71-48.5-48.5-48.5h0Z"/>
  </g>
  <g>
    <rect class="cls-1" x="194.5" y="97.5" width="96" height="96"/>
    <path class="cls-3" d="M290,98v95h-95v-95h95M291,97h-97v97h97v-97h0Z"/>
  </g>
  <g>
    <path class="cls-1" d="M242.5,193.5c-26.47,0-48-21.53-48-48s21.53-48,48-48,48,21.53,48,48-21.53,48-48,48Z"/>
    <path class="cls-3" d="M242.5,98c26.19,0,47.5,21.31,47.5,47.5s-21.31,47.5-47.5,47.5-47.5-21.31-47.5-47.5,21.31-47.5,47.5-47.5M242.5,97h0c-26.79,0-48.5,21.71-48.5,48.5h0c0,26.79,21.71,48.5,48.5,48.5h0c26.79,0,48.5-21.71,48.5-48.5h0c0-26.79-21.71-48.5-48.5-48.5h0Z"/>
  </g>
  <g>
    <rect class="cls-1" x="291.5" y="97.5" width="96" height="96"/>
    <path class="cls-3" d="M387,98v95h-95v-95h95M388,97h-97v97h97v-97h0Z"/>
  </g>
  <g>
    <path class="cls-1" d="M339.5,193.5c-26.47,0-48-21.53-48-48s21.53-48,48-48,48,21.53,48,48-21.53,48-48,48Z"/>
    <path class="cls-3" d="M339.5,98c26.19,0,47.5,21.31,47.5,47.5s-21.31,47.5-47.5,47.5-47.5-21.31-47.5-47.5,21.31-47.5,47.5-47.5M339.5,97h0c-26.79,0-48.5,21.71-48.5,48.5h0c0,26.79,21.71,48.5,48.5,48.5h0c26.79,0,48.5-21.71,48.5-48.5h0c0-26.79-21.71-48.5-48.5-48.5h0Z"/>
  </g>
  <g>
    <path class="cls-1" d="M484.5,135.57c-1.9-9.3-6.48-17.85-13.35-24.73-6.87-6.87-15.42-11.44-24.73-13.35h38.07v38.07Z"/>
    <path class="cls-3" d="M484,98v33.49c-2.3-7.85-6.55-15.05-12.49-21-5.95-5.94-13.15-10.19-21-12.49h33.49M485,97h-48.5c13.4,0,25.52,5.43,34.3,14.2,8.77,8.78,14.2,20.9,14.2,34.3v-48.5h0Z"/>
  </g>
  <g>
    <path class="cls-1" d="M446.43,193.5c9.3-1.9,17.85-6.48,24.73-13.35,6.87-6.87,11.44-15.42,13.35-24.73v38.07h-38.07Z"/>
    <path class="cls-3" d="M484,159.51v33.49h-33.49c7.85-2.3,15.05-6.55,21-12.49,5.94-5.95,10.19-13.15,12.49-21M485,145.5c0,13.4-5.43,25.52-14.2,34.3-8.78,8.77-20.9,14.2-34.3,14.2h48.5v-48.5h0Z"/>
  </g>
  <g>
    <path class="cls-1" d="M.5,290.5v-38.12c3.93,19.11,19.01,34.2,38.12,38.12H.5Z"/>
    <path class="cls-3" d="M1,256.45c4.74,16.1,17.45,28.82,33.55,33.55H1v-33.55M0,242.5v48.5h48.5c-26.79,0-48.5-21.71-48.5-48.5h0Z"/>
  </g>
  <g>
    <path class="cls-1" d="M.5,194.5h38.07c-9.3,1.9-17.85,6.48-24.73,13.35-6.87,6.87-11.44,15.42-13.35,24.73v-38.07Z"/>
    <path class="cls-3" d="M34.49,195c-7.85,2.3-15.05,6.55-21,12.49-5.94,5.95-10.19,13.15-12.49,21v-33.49h33.49M48.5,194H0v48.5c0-13.4,5.43-25.52,14.2-34.3,8.78-8.77,20.9-14.2,34.3-14.2h0Z"/>
  </g>
  <g>
    <path class="cls-1" d="M145.5,290.5c-26.47,0-48-21.53-48-48v-48h96v96h-48Z"/>
    <path class="cls-3" d="M193,195v95h-47.5c-26.19,0-47.5-21.31-47.5-47.5v-47.5h95M194,194h-97v48.5c0,26.79,21.71,48.5,48.5,48.5h48.5v-97h0Z"/>
  </g>
  <g>
    <path class="cls-1" d="M145.5,290.5c-26.47,0-48-21.53-48-48,0-12.82,4.99-24.87,14.05-33.95,9.07-9.06,21.13-14.05,33.95-14.05s24.87,4.99,33.95,14.05c9.06,9.07,14.05,21.13,14.05,33.95s-4.99,24.87-14.05,33.95c-9.07,9.06-21.13,14.05-33.95,14.05Z"/>
    <path class="cls-3" d="M145.5,195c12.68,0,24.61,4.94,33.59,13.91,8.97,8.98,13.91,20.91,13.91,33.59s-4.94,24.61-13.91,33.59c-8.98,8.97-20.91,13.91-33.59,13.91-26.19,0-47.5-21.31-47.5-47.5,0-12.68,4.94-24.61,13.91-33.59,8.98-8.97,20.91-13.91,33.59-13.91M145.5,194c-13.4,0-25.52,5.43-34.3,14.2-8.77,8.78-14.2,20.9-14.2,34.3,0,26.79,21.71,48.5,48.5,48.5,13.4,0,25.52-5.43,34.3-14.2,8.77-8.78,14.2-20.9,14.2-34.3s-5.43-25.52-14.2-34.3c-8.78-8.77-20.9-14.2-34.3-14.2h0Z"/>
  </g>
  <g>
    <rect class="cls-1" x="194.5" y="194.5" width="96" height="96"/>
    <path class="cls-3" d="M290,195v95h-95v-95h95M291,194h-97v97h97v-97h0Z"/>
  </g>
  <g>
    <path class="cls-1" d="M242.5,290.5c-26.47,0-48-21.53-48-48s21.53-48,48-48,48,21.53,48,48-21.53,48-48,48Z"/>
    <path class="cls-3" d="M242.5,195c26.19,0,47.5,21.31,47.5,47.5s-21.31,47.5-47.5,47.5-47.5-21.31-47.5-47.5,21.31-47.5,47.5-47.5M242.5,194h0c-26.79,0-48.5,21.71-48.5,48.5h0c0,26.79,21.71,48.5,48.5,48.5h0c26.79,0,48.5-21.71,48.5-48.5h0c0-26.79-21.71-48.5-48.5-48.5h0Z"/>
  </g>
  <g>
    <path class="cls-1" d="M291.5,290.5v-96h96v48c0,12.82-4.99,24.87-14.05,33.95-9.07,9.06-21.13,14.05-33.95,14.05h-48Z"/>
    <path class="cls-3" d="M387,195v47.5c0,12.68-4.94,24.61-13.91,33.59-8.98,8.97-20.91,13.91-33.59,13.91h-47.5v-95h95M388,194h-97v97h48.5c13.4,0,25.52-5.43,34.3-14.2,8.77-8.78,14.2-20.9,14.2-34.3v-48.5h0Z"/>
  </g>
  <g>
    <path class="cls-1" d="M339.5,290.5c-26.47,0-48-21.53-48-48,0-12.82,4.99-24.87,14.05-33.95,9.07-9.06,21.13-14.05,33.95-14.05s24.87,4.99,33.95,14.05c9.06,9.07,14.05,21.13,14.05,33.95s-4.99,24.87-14.05,33.95c-9.07,9.06-21.13,14.05-33.95,14.05Z"/>
    <path class="cls-3" d="M339.5,195c12.68,0,24.61,4.94,33.59,13.91,8.97,8.98,13.91,20.91,13.91,33.59s-4.94,24.61-13.91,33.59c-8.98,8.97-20.91,13.91-33.59,13.91-26.19,0-47.5-21.31-47.5-47.5,0-12.68,4.94-24.61,13.91-33.59,8.98-8.97,20.91-13.91,33.59-13.91M339.5,194c-13.4,0-25.52,5.43-34.3,14.2-8.77,8.78-14.2,20.9-14.2,34.3,0,26.79,21.71,48.5,48.5,48.5,13.4,0,25.52-5.43,34.3-14.2,8.77-8.78,14.2-20.9,14.2-34.3s-5.43-25.52-14.2-34.3c-8.78-8.77-20.9-14.2-34.3-14.2h0Z"/>
  </g>
  <g>
    <path class="cls-1" d="M484.5,232.57c-1.9-9.3-6.48-17.85-13.35-24.73-6.87-6.87-15.42-11.44-24.73-13.35h38.07v38.07Z"/>
    <path class="cls-3" d="M484,195v33.49c-2.3-7.85-6.55-15.05-12.49-21-5.95-5.94-13.15-10.19-21-12.49h33.49M485,194h-48.5c13.4,0,25.52,5.43,34.3,14.2,8.77,8.78,14.2,20.9,14.2,34.3v-48.5h0Z"/>
  </g>
  <g>
    <path class="cls-1" d="M446.43,290.5c9.3-1.9,17.85-6.48,24.73-13.35,6.87-6.87,11.44-15.42,13.35-24.73v38.07h-38.07Z"/>
    <path class="cls-3" d="M484,256.51v33.49h-33.49c7.85-2.3,15.05-6.55,21-12.49,5.94-5.95,10.19-13.15,12.49-21M485,242.5c0,13.4-5.43,25.52-14.2,34.3-8.78,8.77-20.9,14.2-34.3,14.2h48.5v-48.5h0Z"/>
  </g>
  <g>
    <path class="cls-1" d="M.5,387.5v-96h48c12.82,0,24.87,4.99,33.95,14.05,9.06,9.07,14.05,21.13,14.05,33.95v48H.5Z"/>
    <path class="cls-3" d="M48.5,292c12.68,0,24.61,4.94,33.59,13.91,8.97,8.98,13.91,20.91,13.91,33.59v47.5H1v-95h47.5M48.5,291H0v97h97v-48.5c0-13.4-5.43-25.52-14.2-34.3-8.78-8.77-20.9-14.2-34.3-14.2h0Z"/>
  </g>
  <g>
    <path class="cls-1" d="M48.5,387.5c-26.47,0-48-21.53-48-48,0-12.82,4.99-24.87,14.05-33.95,9.07-9.06,21.13-14.05,33.95-14.05s24.87,4.99,33.95,14.05c9.06,9.07,14.05,21.13,14.05,33.95s-4.99,24.87-14.05,33.95c-9.07,9.06-21.13,14.05-33.95,14.05Z"/>
    <path class="cls-3" d="M48.5,292c12.68,0,24.61,4.94,33.59,13.91,8.97,8.98,13.91,20.91,13.91,33.59s-4.94,24.61-13.91,33.59c-8.98,8.97-20.91,13.91-33.59,13.91-26.19,0-47.5-21.31-47.5-47.5,0-12.68,4.94-24.61,13.91-33.59,8.98-8.97,20.91-13.91,33.59-13.91M48.5,291c-13.4,0-25.52,5.43-34.3,14.2-8.77,8.78-14.2,20.9-14.2,34.3,0,26.79,21.71,48.5,48.5,48.5,13.4,0,25.52-5.43,34.3-14.2,8.77-8.78,14.2-20.9,14.2-34.3s-5.43-25.52-14.2-34.3c-8.78-8.77-20.9-14.2-34.3-14.2h0Z"/>
  </g>
  <g>
    <path class="cls-1" d="M97.5,387.5v-38.12c3.93,19.11,19.01,34.2,38.12,38.12h-38.12Z"/>
    <path class="cls-3" d="M98,353.45c4.74,16.1,17.45,28.82,33.55,33.55h-33.55v-33.55M97,339.5v48.5h48.5c-26.79,0-48.5-21.71-48.5-48.5h0Z"/>
  </g>
  <g>
    <path class="cls-1" d="M193.5,329.57c-1.9-9.3-6.48-17.85-13.35-24.73-6.87-6.87-15.42-11.44-24.73-13.35h38.07v38.07Z"/>
    <path class="cls-3" d="M193,292v33.49c-2.3-7.85-6.55-15.05-12.49-21-5.95-5.94-13.15-10.19-21-12.49h33.49M194,291h-48.5c13.4,0,25.52,5.43,34.3,14.2,8.77,8.78,14.2,20.9,14.2,34.3v-48.5h0Z"/>
  </g>
  <g>
    <path class="cls-1" d="M242.5,387.5c-26.47,0-48-21.53-48-48v-48h96v48c0,12.82-4.99,24.87-14.05,33.95-9.07,9.06-21.13,14.05-33.95,14.05Z"/>
    <path class="cls-3" d="M290,292v47.5c0,12.68-4.94,24.61-13.91,33.59-8.98,8.97-20.91,13.91-33.59,13.91-26.19,0-47.5-21.31-47.5-47.5v-47.5h95M291,291h-97v48.5c0,26.79,21.71,48.5,48.5,48.5,13.4,0,25.52-5.43,34.3-14.2,8.77-8.78,14.2-20.9,14.2-34.3v-48.5h0Z"/>
  </g>
  <g>
    <path class="cls-1" d="M242.5,387.5c-26.47,0-48-21.53-48-48,0-12.82,4.99-24.87,14.05-33.95,9.07-9.06,21.13-14.05,33.95-14.05s24.87,4.99,33.95,14.05c9.06,9.07,14.05,21.13,14.05,33.95s-4.99,24.87-14.05,33.95c-9.07,9.06-21.13,14.05-33.95,14.05Z"/>
    <path class="cls-3" d="M242.5,292c12.68,0,24.61,4.94,33.59,13.91,8.97,8.98,13.91,20.91,13.91,33.59s-4.94,24.61-13.91,33.59c-8.98,8.97-20.91,13.91-33.59,13.91-26.19,0-47.5-21.31-47.5-47.5,0-12.68,4.94-24.61,13.91-33.59,8.98-8.97,20.91-13.91,33.59-13.91M242.5,291c-13.4,0-25.52,5.43-34.3,14.2-8.77,8.78-14.2,20.9-14.2,34.3,0,26.79,21.71,48.5,48.5,48.5,13.4,0,25.52-5.43,34.3-14.2,8.77-8.78,14.2-20.9,14.2-34.3s-5.43-25.52-14.2-34.3c-8.78-8.77-20.9-14.2-34.3-14.2h0Z"/>
  </g>
  <g>
    <path class="cls-1" d="M291.5,291.5h38.07c-9.3,1.9-17.85,6.48-24.73,13.35-6.87,6.87-11.44,15.42-13.35,24.73v-38.07Z"/>
    <path class="cls-3" d="M325.49,292c-7.85,2.3-15.05,6.55-21,12.49-5.94,5.95-10.19,13.15-12.49,21v-33.49h33.49M339.5,291h-48.5v48.5c0-13.4,5.43-25.52,14.2-34.3,8.78-8.77,20.9-14.2,34.3-14.2h0Z"/>
  </g>
  <g>
    <path class="cls-1" d="M349.43,387.5c9.3-1.9,17.85-6.48,24.73-13.35,6.87-6.87,11.44-15.42,13.35-24.73v38.07h-38.07Z"/>
    <path class="cls-3" d="M387,353.51v33.49h-33.49c7.85-2.3,15.05-6.55,21-12.49,5.94-5.95,10.19-13.15,12.49-21M388,339.5c0,13.4-5.43,25.52-14.2,34.3-8.78,8.77-20.9,14.2-34.3,14.2h48.5v-48.5h0Z"/>
  </g>
  <g>
    <path class="cls-1" d="M388.5,387.5v-48c0-12.82,4.99-24.87,14.05-33.95,9.07-9.06,21.13-14.05,33.95-14.05h48v96h-96Z"/>
    <path class="cls-3" d="M484,292v95h-95v-47.5c0-12.68,4.94-24.61,13.91-33.59,8.98-8.97,20.91-13.91,33.59-13.91h47.5M485,291h-48.5c-13.4,0-25.52,5.43-34.3,14.2-8.77,8.78-14.2,20.9-14.2,34.3v48.5h97v-97h0Z"/>
  </g>
  <g>
    <path class="cls-1" d="M436.5,387.5c-26.47,0-48-21.53-48-48,0-12.82,4.99-24.87,14.05-33.95,9.07-9.06,21.13-14.05,33.95-14.05s24.87,4.99,33.95,14.05c9.06,9.07,14.05,21.13,14.05,33.95s-4.99,24.87-14.05,33.95c-9.07,9.06-21.13,14.05-33.95,14.05Z"/>
    <path class="cls-3" d="M436.5,292c12.68,0,24.61,4.94,33.59,13.91,8.97,8.98,13.91,20.91,13.91,33.59s-4.94,24.61-13.91,33.59c-8.98,8.97-20.91,13.91-33.59,13.91-26.19,0-47.5-21.31-47.5-47.5,0-12.68,4.94-24.61,13.91-33.59,8.98-8.97,20.91-13.91,33.59-13.91M436.5,291c-13.4,0-25.52,5.43-34.3,14.2-8.77,8.78-14.2,20.9-14.2,34.3,0,26.79,21.71,48.5,48.5,48.5,13.4,0,25.52-5.43,34.3-14.2,8.77-8.78,14.2-20.9,14.2-34.3s-5.43-25.52-14.2-34.3c-8.78-8.77-20.9-14.2-34.3-14.2h0Z"/>
  </g>
  <g>
    <rect class="cls-1" x=".5" y="388.5" width="96" height="96"/>
    <path class="cls-3" d="M96,389v95H1v-95h95M97,388H0v97h97v-97h0Z"/>
  </g>
  <g>
    <path class="cls-1" d="M48.5,484.5c-26.47,0-48-21.53-48-48s21.53-48,48-48,48,21.53,48,48-21.53,48-48,48Z"/>
    <path class="cls-3" d="M48.5,389c26.19,0,47.5,21.31,47.5,47.5s-21.31,47.5-47.5,47.5S1,462.69,1,436.5s21.31-47.5,47.5-47.5M48.5,388h0c-26.79,0-48.5,21.71-48.5,48.5h0c0,26.79,21.71,48.5,48.5,48.5h0c26.79,0,48.5-21.71,48.5-48.5h0c0-26.79-21.71-48.5-48.5-48.5h0Z"/>
  </g>
  <g>
    <path class="cls-1" d="M97.5,484.5v-96h48c12.82,0,24.87,4.99,33.95,14.05,9.06,9.07,14.05,21.13,14.05,33.95v48h-96Z"/>
    <path class="cls-3" d="M145.5,389c12.68,0,24.61,4.94,33.59,13.91,8.97,8.98,13.91,20.91,13.91,33.59v47.5h-95v-95h47.5M145.5,388h-48.5v97h97v-48.5c0-13.4-5.43-25.52-14.2-34.3-8.78-8.77-20.9-14.2-34.3-14.2h0Z"/>
  </g>
  <g>
    <path class="cls-1" d="M145.5,484.5c-26.47,0-48-21.53-48-48,0-12.82,4.99-24.87,14.05-33.95,9.07-9.06,21.13-14.05,33.95-14.05s24.87,4.99,33.95,14.05c9.06,9.07,14.05,21.13,14.05,33.95s-4.99,24.87-14.05,33.95c-9.07,9.06-21.13,14.05-33.95,14.05Z"/>
    <path class="cls-3" d="M145.5,389c12.68,0,24.61,4.94,33.59,13.91,8.97,8.98,13.91,20.91,13.91,33.59s-4.94,24.61-13.91,33.59c-8.98,8.97-20.91,13.91-33.59,13.91-26.19,0-47.5-21.31-47.5-47.5,0-12.68,4.94-24.61,13.91-33.59,8.98-8.97,20.91-13.91,33.59-13.91M145.5,388c-13.4,0-25.52,5.43-34.3,14.2-8.77,8.78-14.2,20.9-14.2,34.3,0,26.79,21.71,48.5,48.5,48.5,13.4,0,25.52-5.43,34.3-14.2,8.77-8.78,14.2-20.9,14.2-34.3s-5.43-25.52-14.2-34.3c-8.78-8.77-20.9-14.2-34.3-14.2h0Z"/>
  </g>
  <g>
    <path class="cls-1" d="M194.5,484.5v-38.12c3.93,19.11,19.01,34.2,38.12,38.12h-38.12Z"/>
    <path class="cls-3" d="M195,450.45c4.74,16.1,17.45,28.82,33.55,33.55h-33.55v-33.55M194,436.5v48.5h48.5c-26.79,0-48.5-21.71-48.5-48.5h0Z"/>
  </g>
  <g>
    <path class="cls-1" d="M252.43,484.5c9.3-1.9,17.85-6.48,24.73-13.35,6.87-6.87,11.44-15.42,13.35-24.73v38.07h-38.07Z"/>
    <path class="cls-3" d="M290,450.51v33.49h-33.49c7.85-2.3,15.05-6.55,21-12.49,5.94-5.95,10.19-13.15,12.49-21M291,436.5c0,13.4-5.43,25.52-14.2,34.3-8.78,8.77-20.9,14.2-34.3,14.2h48.5v-48.5h0Z"/>
  </g>
  <g>
    <path class="cls-1" d="M291.5,484.5v-48c0-12.82,4.99-24.87,14.05-33.95,9.07-9.06,21.13-14.05,33.95-14.05h48v96h-96Z"/>
    <path class="cls-3" d="M387,389v95h-95v-47.5c0-12.68,4.94-24.61,13.91-33.59,8.98-8.97,20.91-13.91,33.59-13.91h47.5M388,388h-48.5c-13.4,0-25.52,5.43-34.3,14.2-8.77,8.78-14.2,20.9-14.2,34.3v48.5h97v-97h0Z"/>
  </g>
  <g>
    <path class="cls-1" d="M339.5,484.5c-26.47,0-48-21.53-48-48,0-12.82,4.99-24.87,14.05-33.95,9.07-9.06,21.13-14.05,33.95-14.05s24.87,4.99,33.95,14.05c9.06,9.07,14.05,21.13,14.05,33.95s-4.99,24.87-14.05,33.95c-9.07,9.06-21.13,14.05-33.95,14.05Z"/>
    <path class="cls-3" d="M339.5,389c12.68,0,24.61,4.94,33.59,13.91,8.97,8.98,13.91,20.91,13.91,33.59s-4.94,24.61-13.91,33.59c-8.98,8.97-20.91,13.91-33.59,13.91-26.19,0-47.5-21.31-47.5-47.5,0-12.68,4.94-24.61,13.91-33.59,8.98-8.97,20.91-13.91,33.59-13.91M339.5,388c-13.4,0-25.52,5.43-34.3,14.2-8.77,8.78-14.2,20.9-14.2,34.3,0,26.79,21.71,48.5,48.5,48.5,13.4,0,25.52-5.43,34.3-14.2,8.77-8.78,14.2-20.9,14.2-34.3s-5.43-25.52-14.2-34.3c-8.78-8.77-20.9-14.2-34.3-14.2h0Z"/>
  </g>
  <g>
    <rect class="cls-1" x="388.5" y="388.5" width="96" height="96"/>
    <path class="cls-3" d="M484,389v95h-95v-95h95M485,388h-97v97h97v-97h0Z"/>
  </g>
  <g>
    <path class="cls-1" d="M436.5,484.5c-26.47,0-48-21.53-48-48s21.53-48,48-48,48,21.53,48,48-21.53,48-48,48Z"/>
    <path class="cls-3" d="M436.5,389c26.19,0,47.5,21.31,47.5,47.5s-21.31,47.5-47.5,47.5-47.5-21.31-47.5-47.5,21.31-47.5,47.5-47.5M436.5,388h0c-26.79,0-48.5,21.71-48.5,48.5h0c0,26.79,21.71,48.5,48.5,48.5h0c26.79,0,48.5-21.71,48.5-48.5h0c0-26.79-21.71-48.5-48.5-48.5h0Z"/>
  </g>
</svg>